<svg width="431" height="416" viewBox="0 0 431 416" fill="none" xmlns="http://www.w3.org/2000/svg">
<g clip-path="url(#clip0_594_3474)">
<path d="M97.9998 53.8545C112.849 53.8545 124.886 41.7987 124.886 26.9272C124.886 12.0557 112.849 0 97.9998 0C83.1508 0 71.1133 12.0557 71.1133 26.9272C71.1133 41.7987 83.1508 53.8545 97.9998 53.8545Z" fill="#C78437"/>
<path d="M128.256 198.621C117.749 198.621 107.588 194.863 99.6027 188.024C96.939 185.741 94.1007 181.77 91.167 176.225C89.2949 172.653 88.2463 168.706 88.0984 164.674C87.9505 160.643 88.7071 156.629 90.3125 152.929C88.765 154.506 87.0534 155.912 85.2069 157.124L84.2735 157.746L84.2196 156.625C84.1842 155.896 84.1663 155.169 84.1663 154.465C84.1663 150.316 87.2992 146.107 85.8544 142.272C79.7645 126.111 60.449 110.049 88.443 85.0365C91.0327 82.7227 87.5733 78.0965 87.5733 74.5957C87.5733 40.2875 124.794 -11.1776 149.711 12.3759C164.256 26.1243 194.558 35.891 208.706 55.0143L208.893 55.5809L208.341 55.8046C205.514 56.9944 202.537 57.7875 199.493 58.1614C202.738 58.8241 206.049 59.1019 209.359 58.9891L209.872 58.9712L209.997 59.4707C211.228 64.4179 211.85 69.4973 211.849 74.5957L211.847 75.1469C211.836 79.0194 212.639 82.8509 214.206 86.3916C215.772 89.9322 218.066 93.1026 220.937 95.6958C225.473 99.8379 229.098 104.881 231.58 110.504C234.062 116.126 235.348 122.205 235.354 128.353C235.354 135.626 230.418 145.174 226.278 151.902C225.228 153.616 223.805 155.07 222.114 156.154C220.424 157.239 218.51 157.926 216.517 158.164C214.629 158.402 212.711 158.222 210.901 157.636C209.09 157.05 207.429 156.073 206.038 154.773C207.997 158.72 210.551 162.341 213.61 165.511L214.175 166.094L213.474 166.503C206.733 170.44 199.068 172.513 191.265 172.51L190.808 172.508C178.961 172.508 167.715 177.105 159.955 185.12C155.835 189.371 150.909 192.755 145.466 195.073C140.022 197.391 134.171 198.598 128.256 198.621Z" fill="#25313C"/>
<path d="M112.708 267.79C112.518 267.79 112.333 267.721 112.189 267.595C112.045 267.47 111.951 267.297 111.924 267.108C111.891 266.871 108.591 243.038 111.555 211.363C114.291 182.11 123.08 139.976 149.408 105.371C149.471 105.288 149.549 105.219 149.639 105.166C149.729 105.114 149.829 105.08 149.932 105.066C150.035 105.052 150.14 105.058 150.241 105.085C150.342 105.112 150.436 105.158 150.519 105.221C150.602 105.284 150.671 105.363 150.724 105.453C150.776 105.544 150.81 105.643 150.824 105.746C150.838 105.85 150.831 105.955 150.805 106.056C150.778 106.157 150.732 106.251 150.669 106.334C124.569 140.639 115.851 182.465 113.133 211.511C110.187 243.002 113.461 266.649 113.494 266.884C113.51 266.997 113.502 267.112 113.47 267.221C113.437 267.33 113.382 267.431 113.308 267.517C113.233 267.602 113.141 267.671 113.038 267.719C112.934 267.766 112.822 267.79 112.708 267.79Z" fill="#CCCCCC"/>
<path d="M136.747 153.307C136.579 153.307 136.416 153.254 136.28 153.155C136.145 153.057 136.044 152.918 135.992 152.758C135.94 152.599 135.94 152.427 135.992 152.267C136.044 152.108 136.144 151.969 136.28 151.87C143.782 146.785 151.886 142.653 160.406 139.57C173.716 134.69 193.957 130.265 214.794 136.907C214.894 136.939 214.986 136.99 215.065 137.057C215.145 137.124 215.21 137.206 215.258 137.299C215.306 137.392 215.335 137.493 215.344 137.597C215.353 137.701 215.341 137.805 215.309 137.905C215.278 138.004 215.227 138.096 215.16 138.176C215.093 138.256 215.011 138.321 214.918 138.369C214.826 138.417 214.725 138.446 214.621 138.455C214.517 138.464 214.413 138.452 214.313 138.42C193.903 131.915 174.029 136.266 160.951 141.062C152.568 144.092 144.594 148.154 137.212 153.155C137.077 153.254 136.914 153.307 136.747 153.307Z" fill="#CCCCCC"/>
<path d="M99.9162 59.517C99.904 59.3497 99.945 59.1828 100.033 59.0403C100.122 58.8978 100.253 58.7869 100.408 58.7237C100.563 58.6604 100.734 58.648 100.897 58.6881C101.059 58.7283 101.205 58.819 101.313 58.9472C106.918 66.0746 111.616 73.8724 115.3 82.1609C121.119 95.1056 126.983 115.006 121.869 136.299C121.845 136.4 121.801 136.496 121.739 136.58C121.678 136.665 121.601 136.736 121.512 136.791C121.423 136.845 121.325 136.882 121.222 136.898C121.119 136.914 121.014 136.91 120.913 136.886C120.811 136.861 120.716 136.817 120.632 136.756C120.547 136.694 120.476 136.617 120.422 136.528C120.367 136.439 120.331 136.34 120.315 136.237C120.299 136.134 120.303 136.029 120.327 135.927C125.336 115.071 119.571 95.5317 113.854 82.813C110.233 74.6574 105.613 66.9846 100.101 59.971C99.9928 59.8431 99.9281 59.6841 99.9162 59.517Z" fill="#CCCCCC"/>
<path d="M293.358 316.041C238.822 316.041 196.962 313.166 167.907 301.639C97.1398 273.564 73.1483 261.905 72.9141 261.79L73.3916 260.812C73.6253 260.926 97.5929 272.572 168.308 300.626C210.252 317.268 279.265 315.784 374.784 313.729C392.708 313.344 411.243 312.945 430.983 312.627L431 313.716C411.264 314.034 392.73 314.433 374.807 314.818C345.093 315.457 317.937 316.041 293.358 316.041Z" fill="#CACACA"/>
<path d="M63.2043 387.519L62.4352 386.749C88.8583 360.286 99.0406 350.168 101.198 348.028L23.3398 291.703L23.9767 290.82L102.876 347.898L102.419 348.35C102.332 348.437 93.3126 357.365 63.2043 387.519Z" fill="#CACACA"/>
<path d="M102.406 416L101.664 415.203C104.102 412.925 161.434 359.458 172.605 359.458H172.641L429.418 362.076L429.407 363.166L172.63 360.547H172.598C161.863 360.547 103 415.445 102.406 416Z" fill="#CACACA"/>
<path d="M423.973 332.661H358.023V333.75H423.973V332.661Z" fill="#CACACA"/>
<path d="M300.509 332.661H234.559V333.75H300.509V332.661Z" fill="#CACACA"/>
<path d="M231.431 244.873H193.358V235.24H207.499C208.365 235.24 209.195 234.895 209.807 234.283C210.419 233.67 210.763 232.838 210.763 231.971V221.536C210.763 220.669 210.419 219.837 209.807 219.224C209.195 218.611 208.365 218.267 207.499 218.267H193.358V214.999C193.358 213.843 192.899 212.735 192.083 211.917C191.267 211.1 190.16 210.641 189.006 210.641C187.852 210.641 186.745 211.1 185.929 211.917C185.113 212.735 184.655 213.843 184.655 214.999V218.267H132.39C131.715 218.267 131.056 218.477 130.504 218.868L123.147 224.086C122.721 224.388 122.374 224.788 122.134 225.252C121.895 225.716 121.77 226.231 121.77 226.753C121.77 227.276 121.895 227.791 122.134 228.255C122.374 228.719 122.721 229.119 123.147 229.421L130.504 234.639C131.056 235.03 131.715 235.24 132.39 235.24H184.655V244.873H146.581C145.716 244.873 144.886 245.217 144.274 245.83C143.662 246.443 143.318 247.275 143.318 248.141V258.577C143.318 259.444 143.662 260.275 144.274 260.888C144.886 261.501 145.716 261.846 146.581 261.846H184.655V297.798C184.655 298.954 185.113 300.062 185.929 300.879C186.745 301.697 187.852 302.156 189.006 302.156C190.16 302.156 191.267 301.697 192.083 300.879C192.899 300.062 193.358 298.954 193.358 297.798V261.846H231.431C232.297 261.846 233.127 261.501 233.739 260.888C234.351 260.275 234.695 259.444 234.695 258.577V248.141C234.695 247.712 234.61 247.287 234.446 246.891C234.282 246.494 234.042 246.134 233.739 245.83C233.436 245.527 233.076 245.286 232.68 245.122C232.284 244.958 231.86 244.873 231.431 244.873Z" fill="black"/>
<path d="M167.248 227.255H140.052C139.547 227.255 139.063 227.054 138.706 226.697C138.349 226.339 138.148 225.854 138.148 225.348C138.148 224.843 138.349 224.358 138.706 224C139.063 223.643 139.547 223.442 140.052 223.442H167.248C167.752 223.442 168.237 223.643 168.594 224C168.951 224.358 169.151 224.843 169.151 225.348C169.151 225.854 168.951 226.339 168.594 226.697C168.237 227.054 167.752 227.255 167.248 227.255Z" fill="#C78437"/>
<path d="M200.97 255.037H173.775C173.27 255.037 172.786 254.836 172.429 254.478C172.072 254.121 171.871 253.636 171.871 253.13C171.871 252.624 172.072 252.139 172.429 251.782C172.786 251.424 173.27 251.223 173.775 251.223H200.97C201.475 251.223 201.959 251.424 202.316 251.782C202.673 252.139 202.874 252.624 202.874 253.13C202.874 253.636 202.673 254.121 202.316 254.478C201.959 254.836 201.475 255.037 200.97 255.037Z" fill="white"/>
<path d="M70.4346 299.346V289.713H84.5762C85.4418 289.713 86.2718 289.369 86.8838 288.756C87.4959 288.143 87.8397 287.311 87.8397 286.445V276.009C87.8397 275.142 87.4959 274.31 86.8838 273.698C86.2718 273.085 85.4418 272.74 84.5762 272.74H70.4346V269.621C70.4491 268.497 70.0386 267.408 69.2853 266.574C68.532 265.74 67.4917 265.222 66.373 265.123C65.7785 265.084 65.1822 265.167 64.621 265.367C64.0599 265.568 63.5458 265.882 63.1107 266.289C62.6756 266.697 62.3287 267.19 62.0916 267.737C61.8544 268.285 61.7321 268.875 61.7321 269.472V272.74L3.20271 300.167C2.96336 300.279 2.74942 300.438 2.57411 300.636C2.3988 300.834 2.26583 301.066 2.18342 301.317C1.72241 302.723 0.75398 305.725 0.0952901 308.092C-0.0104965 308.476 -0.0246587 308.88 0.0539508 309.271C0.13256 309.661 0.301745 310.028 0.547848 310.341C0.79395 310.654 1.11009 310.905 1.47076 311.073C1.83144 311.242 2.22656 311.323 2.62426 311.31C6.39616 311.194 8.87797 311.018 10.6005 310.97C10.9327 310.961 11.2598 310.886 11.5631 310.749L61.7321 289.713V316.319V352.122C61.7175 353.246 62.1281 354.335 62.8814 355.169C63.6346 356.003 64.675 356.521 65.7937 356.62C66.3882 356.659 66.9845 356.576 67.5457 356.376C68.1068 356.175 68.6209 355.861 69.056 355.454C69.4911 355.046 69.8379 354.553 70.0751 354.006C70.3122 353.458 70.4346 352.868 70.4346 352.271L70.4346 299.346Z" fill="black"/>
<path d="M47.7211 289.881L22.9051 301.023C22.4443 301.23 21.9205 301.245 21.4486 301.065C20.9768 300.885 20.5957 300.524 20.3892 300.063C20.1827 299.602 20.1676 299.077 20.3474 298.604C20.5271 298.132 20.8869 297.75 21.3476 297.543L46.1636 286.402C46.6244 286.195 47.1482 286.18 47.6201 286.36C48.0919 286.54 48.473 286.9 48.6795 287.362C48.886 287.823 48.9011 288.348 48.7213 288.82C48.5416 289.293 48.1818 289.675 47.7211 289.881Z" fill="#C78437"/>
<path d="M380.293 201.128L368.952 202.28C368.437 208.116 369.453 213.985 371.899 219.307L368.496 251.05L368.546 251.049C368.211 251.629 368.04 252.289 368.051 252.959C368.063 253.629 368.257 254.283 368.612 254.851C368.967 255.419 369.469 255.879 370.066 256.182C370.663 256.485 371.331 256.62 371.998 256.571C372.665 256.522 373.307 256.293 373.853 255.906C374.4 255.52 374.831 254.991 375.1 254.378C375.369 253.764 375.466 253.089 375.38 252.424C375.295 251.76 375.03 251.131 374.614 250.606L382.177 222.284L380.293 201.128Z" fill="#FFB8B8"/>
<path d="M345.412 340.463L340.593 339.631L340.121 325.064L348.614 321.847L345.412 340.463Z" fill="#FFB8B8"/>
<path d="M344.717 345.527L329.898 342.97L329.931 342.782C330.194 341.25 331.055 339.886 332.323 338.989C333.591 338.092 335.162 337.737 336.692 338.001L339.753 336.411L344.45 339.339L345.743 339.562L344.717 345.527Z" fill="#222222"/>
<path d="M393.755 330.377L389.583 332.929L377.766 318.023L383.925 314.256L393.755 330.377Z" fill="#FFB8B8"/>
<path d="M396.564 334.647L383.73 342.496L383.631 342.334C382.822 341.007 382.573 339.413 382.937 337.902C383.302 336.391 384.251 335.087 385.576 334.276L386.834 331.061L392.294 330.167L393.414 329.482L396.564 334.647Z" fill="#222222"/>
<path d="M347.06 251.869L344.169 262.873C344.169 262.873 343.379 267.433 343.788 267.843C344.486 268.832 344.838 270.023 344.79 271.233C344.606 272.349 342.735 271.894 343.671 273.555C344.606 275.216 341.715 300.492 341.715 300.492L339.125 331.571L348.371 332.661C349.699 331.882 349.894 330.997 349.11 330.019C349.11 330.019 351.007 327.829 349.961 326.976C348.915 326.124 350.804 325.768 350.907 323.592L356.876 302.249L358.851 297.478L358.334 294.989L359.835 292.132L360.556 284.637L362.513 304.335L380.787 325.351L389.785 320.846L390.313 319.694C390.53 319.22 390.567 318.683 390.417 318.184C390.267 317.685 389.94 317.258 389.498 316.983L386.445 314.14C386.707 312.968 382.554 310.032 382.554 310.032L375.601 296.924L379.918 260.211C379.918 260.211 386.445 251.496 377.798 243.609C374.256 240.378 347.06 251.869 347.06 251.869Z" fill="#C78437"/>
<path d="M374.885 237.412C376.418 235.13 380.099 238.407 378.872 234.311C377.645 230.215 374.541 229.453 377.32 225.533L381.326 205.994C381.566 201.33 379.985 196.756 376.917 193.239L371.15 186.629L370.284 184.285L360.468 183.875L359.65 186.743C356.718 190.399 351.919 195.095 352.062 202.001C352.339 215.291 350.269 232.975 345.172 255.981C345.172 255.981 356.571 247.066 360.156 250.928C363.74 254.791 374.538 253.741 377.236 251.049C378.965 249.189 380.227 246.942 380.917 244.496C380.917 244.496 373.353 239.693 374.885 237.412Z" fill="#222222"/>
<path d="M381.084 252.912L358.705 246.593L344.02 253.675C350.595 241.421 354.596 221.02 353.332 203.688C353.029 200.005 353.751 196.31 355.418 193.014C357.437 189.123 360.595 186.373 365.232 186.673L371.215 186.128L375.022 188.307C380.531 194.087 382.699 202.711 381.841 210.656C380.895 219.425 379.717 230.078 379.48 231.029C379.34 231.588 379.781 232.569 380.247 233.608C381.034 235.362 382.014 237.544 380.653 238.907C380.241 239.272 379.91 239.719 379.68 240.219C379.45 240.72 379.327 241.263 379.318 241.814C379.353 242.304 379.488 242.781 379.716 243.216C379.944 243.651 380.259 244.034 380.642 244.341C382.381 245.845 381.171 252.445 381.119 252.726L381.084 252.912Z" fill="#222222"/>
<path d="M369.669 209.513L358.426 207.632C356.394 213.126 355.83 219.056 356.79 224.835L345.158 254.559L345.207 254.571C344.731 255.042 344.392 255.634 344.227 256.283C344.062 256.933 344.077 257.615 344.27 258.256C344.463 258.898 344.827 259.475 345.323 259.924C345.819 260.374 346.428 260.68 347.084 260.809C347.741 260.938 348.42 260.886 349.049 260.657C349.678 260.428 350.232 260.032 350.653 259.512C351.074 258.991 351.345 258.365 351.438 257.701C351.53 257.038 351.44 256.361 351.177 255.745L365.923 230.418L369.669 209.513Z" fill="#FFB8B8"/>
<path d="M356.53 215.543L369.584 212.82L371.716 203.332C371.714 201.377 370.938 199.504 369.557 198.122C368.177 196.741 366.305 195.965 364.354 195.965C362.403 195.965 360.531 196.741 359.151 198.122C357.77 199.504 356.994 201.377 356.992 203.332C355.677 208.612 355.906 210.142 356.53 215.543Z" fill="#222222"/>
<path d="M364.967 182.647C370.613 182.647 375.191 178.062 375.191 172.407C375.191 166.752 370.613 162.167 364.967 162.167C359.32 162.167 354.742 166.752 354.742 172.407C354.742 178.062 359.32 182.647 364.967 182.647Z" fill="#FFB8B8"/>
<path d="M376.829 164.624C376.034 163.198 372.869 165.023 371.888 163.718C371.11 162.581 370.121 161.605 368.973 160.845C368.022 160.291 366.944 159.993 365.844 159.981C364.744 159.969 363.659 160.242 362.696 160.775C361.991 161.279 361.235 161.709 360.441 162.058C359.615 162.322 358.537 162.123 358.179 161.332C358.432 162.023 358.684 162.714 358.936 163.405C358.267 163.715 357.506 163.763 356.804 163.538C356.102 163.314 355.509 162.834 355.143 162.193C355.098 162.909 355.054 163.625 355.01 164.34C354.951 164.144 354.823 163.976 354.651 163.866C354.479 163.756 354.273 163.711 354.071 163.74C353.817 163.817 353.587 163.959 353.403 164.151C353.22 164.343 353.089 164.579 353.024 164.837C352.378 166.739 353.923 168.96 355.904 169.278C357.129 169.475 358.361 169.082 359.59 168.915C360.82 168.748 362.243 168.887 363.02 169.856C363.783 170.808 363.635 172.164 363.679 173.384C363.723 174.603 364.256 176.067 365.463 176.229C366.292 176.341 367.084 175.762 367.919 175.812C369.11 175.883 369.874 177.254 369.746 178.442C369.618 179.631 368.871 180.648 368.152 181.602C369.342 181.696 370.532 181.79 371.722 181.885L371.26 182.013C374.172 181.87 376.418 179.04 376.766 176.142C377.114 173.244 378.251 167.173 376.829 164.624Z" fill="#222222"/>
</g>
<defs>
<clipPath id="clip0_594_3474">
<rect width="431" height="416" fill="white"/>
</clipPath>
</defs>
</svg>
