<svg width="86" height="43" viewBox="0 0 86 43" fill="none" xmlns="http://www.w3.org/2000/svg">
<path d="M58.1382 29.0379C57.0954 29.0379 56.2647 29.0026 55.6461 28.9319C55.0275 28.8788 54.5592 28.764 54.241 28.5872C53.9229 28.3928 53.7196 28.1277 53.6313 27.7919C53.5429 27.4384 53.4987 26.9877 53.4987 26.4398V16.3124C53.4987 15.6761 53.5606 15.1459 53.6843 14.7217C53.808 14.2799 54.0554 13.9176 54.4266 13.6348C54.7978 13.3343 55.3103 13.0869 55.9643 12.8924C56.6359 12.698 57.5108 12.5213 58.5889 12.3622C59.0838 12.2915 59.6759 12.2297 60.3652 12.1766C61.0721 12.1236 61.7172 12.0971 62.3005 12.0971C63.414 12.0971 64.4126 12.2385 65.2963 12.5213C66.1977 12.8041 66.9665 13.2106 67.6028 13.7408C68.2391 14.2534 68.7251 14.8808 69.0609 15.6231C69.3967 16.3654 69.5646 17.1873 69.5646 18.0887C69.5646 19.7324 69.2907 21.2259 68.7428 22.5691C68.1949 23.9124 67.4172 25.07 66.4098 26.0421C65.42 26.9965 64.2182 27.7388 62.8042 28.2691C61.4079 28.7816 59.8526 29.0379 58.1382 29.0379ZM66.6219 19.0431C66.6219 17.205 66.1535 15.8794 65.2168 15.0664C64.2977 14.2357 62.8837 13.8203 60.9749 13.8203C60.6921 13.8203 60.427 13.8292 60.1796 13.8469C59.9321 13.8645 59.7024 13.891 59.4903 13.9264C58.8187 14.0148 58.2708 14.112 57.8466 14.218C57.4401 14.3241 57.1131 14.4743 56.8657 14.6687C56.6359 14.8455 56.4768 15.0752 56.3884 15.358C56.3001 15.6231 56.2559 15.9678 56.2559 16.392V26.0421C56.2559 26.3072 56.2824 26.5193 56.3354 26.6784C56.3884 26.8375 56.5033 26.9612 56.6801 27.0496C56.8745 27.1379 57.1484 27.1998 57.5019 27.2351C57.8554 27.2705 58.3415 27.2882 58.9601 27.2882C60.0912 27.2882 61.1252 27.1291 62.0619 26.8109C62.9986 26.4928 63.8028 26.0068 64.4744 25.3528C65.1461 24.6812 65.6674 23.824 66.0386 22.7812C66.4274 21.7384 66.6219 20.4924 66.6219 19.0431ZM79.9159 17.8766C81.5419 17.8766 82.7084 18.1771 83.4154 18.778C84.14 19.3789 84.5024 20.1654 84.5024 21.1375C84.5024 22.0389 84.2549 22.958 83.7601 23.8947C83.2652 24.8138 82.6024 25.6621 81.7717 26.4398C80.941 27.1998 79.9689 27.8272 78.8554 28.3221C77.742 28.7993 76.5666 29.0379 75.3294 29.0379C73.7211 29.0379 72.5546 28.7374 71.8299 28.1365C71.1229 27.5179 70.7694 26.7226 70.7694 25.7505C70.7694 24.8491 71.0169 23.93 71.5118 22.9933C72.0066 22.0566 72.6694 21.2082 73.5001 20.4482C74.3485 19.6882 75.3206 19.0696 76.4164 18.5924C77.5299 18.1152 78.6964 17.8766 79.9159 17.8766ZM78.8024 19.5468C78.0601 19.5468 77.3708 19.6882 76.7345 19.971C76.1159 20.2538 75.5769 20.6338 75.1173 21.111C74.6578 21.5882 74.2955 22.1361 74.0304 22.7547C73.7652 23.3733 73.6327 24.0096 73.6327 24.6635C73.6327 25.5119 73.8801 26.1747 74.375 26.6519C74.8699 27.1291 75.5415 27.3677 76.3899 27.3677C77.1145 27.3677 77.795 27.2263 78.4313 26.9435C79.0675 26.643 79.6243 26.2542 80.1015 25.777C80.5787 25.2998 80.9587 24.7519 81.2415 24.1333C81.5243 23.5147 81.6656 22.8696 81.6656 22.198C81.6656 21.4026 81.4094 20.7663 80.8968 20.2891C80.4019 19.7943 79.7038 19.5468 78.8024 19.5468Z" fill="black"/>
<path d="M5.19816 27.9242C5.19816 28.2246 5.08328 28.4721 4.85352 28.6665C4.62375 28.8432 4.28794 28.9316 3.84608 28.9316C3.40422 28.9316 3.05958 28.8432 2.81214 28.6665C2.56469 28.4721 2.44097 28.2246 2.44097 27.9242V16.4447C2.44097 15.9145 2.47632 15.455 2.54702 15.0661C2.61772 14.6773 2.75911 14.3415 2.9712 14.0587C3.20097 13.7759 3.51911 13.5285 3.92562 13.3164C4.3498 13.1043 4.8977 12.901 5.56932 12.7066C5.83444 12.6359 6.15258 12.5652 6.52374 12.4945C6.91257 12.4062 7.31024 12.3355 7.71675 12.2824C8.12326 12.2117 8.51209 12.1587 8.88325 12.1234C9.27209 12.088 9.61674 12.0703 9.9172 12.0703C12.0204 12.0703 13.5669 12.4415 14.5567 13.1838C15.5465 13.9261 16.0413 14.8806 16.0413 16.0471C16.0413 16.8778 15.8469 17.6819 15.4581 18.4596C15.0869 19.2373 14.539 19.9266 13.8144 20.5275C13.0897 21.1284 12.1972 21.6145 11.1367 21.9856C10.0763 22.3568 8.87442 22.5424 7.53117 22.5424C7.19536 22.5424 6.81536 22.5247 6.39118 22.4893C5.98467 22.454 5.587 22.401 5.19816 22.3303V27.9242ZM5.19816 20.8987C5.49863 20.9517 5.85211 20.9959 6.25862 21.0312C6.6828 21.0489 7.09815 21.0577 7.50466 21.0577C9.51953 21.0577 10.9777 20.6512 11.879 19.8382C12.7981 19.0252 13.2576 17.9205 13.2576 16.5243C13.2576 15.5699 12.9218 14.8452 12.2502 14.3503C11.5786 13.8378 10.6153 13.5815 9.36046 13.5815C9.00697 13.5815 8.62698 13.608 8.22047 13.661C7.83163 13.6964 7.49582 13.7494 7.21303 13.8201C6.7535 13.9261 6.38234 14.041 6.09955 14.1647C5.83444 14.2708 5.63118 14.421 5.48979 14.6154C5.36607 14.7922 5.28654 15.0308 5.25119 15.3313C5.21584 15.614 5.19816 16.0029 5.19816 16.4978V20.8987ZM20.3109 27.8712C20.3109 28.1716 20.2049 28.4279 19.9928 28.64C19.7807 28.8344 19.436 28.9316 18.9588 28.9316C18.4993 28.9316 18.1635 28.8344 17.9514 28.64C17.7393 28.4279 17.6333 28.1716 17.6333 27.8712V11.1159C17.6333 10.8155 17.7393 10.568 17.9514 10.3736C18.1635 10.1615 18.4993 10.0555 18.9588 10.0555C19.436 10.0555 19.7807 10.1615 19.9928 10.3736C20.2049 10.568 20.3109 10.8155 20.3109 11.1159V27.8712ZM31.0802 17.8764C32.6708 17.8764 33.8285 18.1768 34.5532 18.7777C35.2778 19.3787 35.6401 20.1652 35.6401 21.1373C35.6401 21.4377 35.5871 21.7382 35.4811 22.0386C35.3927 22.3391 35.3485 22.6131 35.3485 22.8605V27.8712C35.3485 28.1716 35.2425 28.4279 35.0304 28.64C34.8359 28.8344 34.509 28.9316 34.0494 28.9316C33.5722 28.9316 33.2276 28.8344 33.0155 28.64C32.8211 28.4279 32.7239 28.1716 32.7239 27.8712V26.0949C31.9285 26.9963 30.9918 27.7121 29.9137 28.2423C28.8355 28.7725 27.6867 29.0377 26.4672 29.0377C24.8588 29.0377 23.6923 28.7284 22.9677 28.1098C22.2607 27.4735 21.9072 26.6163 21.9072 25.5382C21.9072 24.6191 22.1546 23.7089 22.6495 22.8075C23.1444 21.8884 23.816 21.0666 24.6644 20.3419C25.5128 19.5996 26.4848 19.0075 27.5806 18.5656C28.6941 18.1061 29.8606 17.8764 31.0802 17.8764ZM30.1523 19.4405C29.3746 19.4405 28.6588 19.5908 28.0048 19.8912C27.3509 20.174 26.7765 20.554 26.2816 21.0312C25.8044 21.5084 25.4244 22.0563 25.1416 22.6749C24.8765 23.2935 24.7439 23.9298 24.7439 24.5837C24.7439 25.4144 24.9737 26.0595 25.4332 26.5191C25.9104 26.9609 26.5821 27.1819 27.4481 27.1819C28.1904 27.1819 28.8885 27.0405 29.5425 26.7577C30.1964 26.4572 30.762 26.0684 31.2392 25.5912C31.7341 25.114 32.1229 24.5661 32.4057 23.9475C32.7062 23.3289 32.8564 22.6838 32.8564 22.0121C32.8564 21.2345 32.609 20.6159 32.1141 20.1563C31.6369 19.6791 30.9829 19.4405 30.1523 19.4405ZM40.284 21.3493C41.7156 19.034 43.8542 17.8764 46.6997 17.8764C48.2551 17.8764 49.4039 18.1857 50.1462 18.8043C50.8885 19.4229 51.2597 20.2359 51.2597 21.2433C51.2597 21.7912 51.1625 22.3833 50.9681 23.0196C50.7737 23.6558 50.4997 24.301 50.1462 24.9549C49.8104 25.6089 49.3951 26.254 48.9002 26.8902C48.4053 27.5088 47.8662 28.0744 47.283 28.587C47.0886 28.7814 46.9118 28.9051 46.7528 28.9581C46.6114 29.0112 46.4523 29.0377 46.2756 29.0377C46.0458 29.0377 45.8425 28.9493 45.6658 28.7725C45.5067 28.6135 45.4272 28.4456 45.4272 28.2688C45.4272 28.1805 45.4449 28.0921 45.4802 28.0037C45.5156 27.8977 45.6039 27.774 45.7453 27.6326C46.1695 27.1907 46.5407 26.7223 46.8588 26.2275C47.1946 25.7149 47.4686 25.22 47.6807 24.7428C47.9104 24.2479 48.0872 23.7796 48.2109 23.3377C48.3346 22.8958 48.3965 22.4982 48.3965 22.1447C48.3965 21.2256 48.1579 20.5452 47.6807 20.1033C47.2211 19.6615 46.5672 19.4405 45.7188 19.4405C45.0472 19.4405 44.3844 19.5908 43.7305 19.8912C43.0942 20.1917 42.5286 20.6159 42.0337 21.1638C41.5388 21.694 41.1412 22.3303 40.8407 23.0726C40.5403 23.7972 40.39 24.5926 40.39 25.4586V27.9242C40.39 28.2246 40.284 28.4721 40.0719 28.6665C39.8775 28.8786 39.5417 28.9846 39.0644 28.9846C38.6049 28.9846 38.2691 28.8786 38.057 28.6665C37.8626 28.4721 37.7654 28.2246 37.7654 27.9242V19.1754C37.7654 18.8749 37.8626 18.6275 38.057 18.4331C38.2514 18.221 38.5696 18.115 39.0114 18.115C39.471 18.115 39.7979 18.221 39.9923 18.4331C40.1868 18.6275 40.284 18.8749 40.284 19.1754V21.3493Z" fill="black"/>
</svg>
