<svg width="750" height="500" viewBox="0 0 750 500" fill="none" xmlns="http://www.w3.org/2000/svg">
<path d="M4.14844 482.1H739.728" stroke="#C78437" stroke-miterlimit="10"/>
<path d="M67.2477 355.59C72.8533 355.59 77.3977 343.676 77.3977 328.98C77.3977 314.284 72.8533 302.37 67.2477 302.37C61.642 302.37 57.0977 314.284 57.0977 328.98C57.0977 343.676 61.642 355.59 67.2477 355.59Z" fill="#C78437" stroke="#263238" stroke-miterlimit="10"/>
<path d="M35.729 312.57C38.899 322.57 44.989 329.57 49.339 328.15C53.689 326.73 54.629 317.56 51.459 307.57C48.289 297.58 42.189 290.62 37.849 292C33.509 293.38 32.549 302.59 35.729 312.57Z" fill="#C78437" stroke="#263238" stroke-miterlimit="10"/>
<path d="M110.171 372.77C120.501 371.02 128.251 365.95 127.491 361.46C126.731 356.97 117.741 354.74 107.411 356.46C97.0805 358.18 89.3305 363.3 90.0905 367.8C90.8505 372.3 99.8405 374.52 110.171 372.77Z" fill="#C78437" stroke="#263238" stroke-miterlimit="10"/>
<path d="M26.169 348.16C34.799 356.72 44.989 360.43 48.939 356.45C52.889 352.47 49.089 342.31 40.459 333.75C31.829 325.19 21.649 321.49 17.699 325.47C13.749 329.45 17.549 339.61 26.169 348.16Z" fill="#C78437" stroke="#263238" stroke-miterlimit="10"/>
<path d="M85.6105 324.7C77.2705 336.8 74.7805 349.56 80.0605 353.19C85.3405 356.82 96.3705 349.97 104.711 337.86C113.051 325.75 115.541 313.01 110.261 309.37C104.981 305.73 94.0005 312.6 85.6105 324.7Z" fill="#C78437" stroke="#263238" stroke-miterlimit="10"/>
<path d="M66.54 354.27L65.75 435.22" stroke="#263238" stroke-miterlimit="10" stroke-linecap="round"/>
<path d="M67.4791 319.09L66.5391 354.27" stroke="#263238" stroke-miterlimit="10" stroke-linecap="round"/>
<path d="M67.418 313.35L67.478 316.04" stroke="#263238" stroke-miterlimit="10" stroke-linecap="round"/>
<path d="M80.0977 351.47C74.2854 363.489 70.8879 376.532 70.0977 389.86V439.93" stroke="#263238" stroke-miterlimit="10" stroke-linecap="round"/>
<path d="M97.5277 324.8C90.5596 332.877 84.6981 341.846 80.0977 351.47" stroke="#263238" stroke-miterlimit="10" stroke-linecap="round"/>
<path d="M102.999 319C102.999 319 101.949 320 100.219 321.8" stroke="#263238" stroke-miterlimit="10" stroke-linecap="round"/>
<path d="M48.3086 355.22C55.4229 365.197 60.9672 376.204 64.7486 387.86" stroke="#263238" stroke-miterlimit="10" stroke-linecap="round"/>
<path d="M36.6289 341.81C40.9306 345.907 44.8409 350.397 48.3089 355.22" stroke="#263238" stroke-miterlimit="10" stroke-linecap="round"/>
<path d="M24.168 332.31C27.3406 334.098 30.3198 336.209 33.058 338.61" stroke="#263238" stroke-miterlimit="10" stroke-linecap="round"/>
<path d="M48.7305 325.67C54.3505 343.36 61.9005 369.5 65.4205 392.19" stroke="#263238" stroke-miterlimit="10" stroke-linecap="round"/>
<path d="M45.3086 315.18C46.3086 318.18 47.4686 321.71 48.7286 325.67" stroke="#263238" stroke-miterlimit="10" stroke-linecap="round"/>
<path d="M41.8008 305C41.8008 305 42.8008 307.71 44.3608 312.35" stroke="#263238" stroke-miterlimit="10" stroke-linecap="round"/>
<path d="M90.6094 365.34C83.6094 368.01 73.9894 375.43 70.6094 385.16" stroke="#263238" stroke-miterlimit="10" stroke-linecap="round"/>
<path d="M103.59 362.71C99.1489 362.928 94.7663 363.815 90.5898 365.34" stroke="#263238" stroke-miterlimit="10" stroke-linecap="round"/>
<path d="M111.997 362.91C111.997 362.91 110.747 362.74 108.688 362.65" stroke="#263238" stroke-miterlimit="10" stroke-linecap="round"/>
<path d="M89.9084 411.68C99.3984 416.11 108.658 416.35 110.588 412.22C112.518 408.09 106.388 401.15 96.8984 396.72C87.4084 392.29 78.1484 392.05 76.2184 396.18C74.2884 400.31 80.4184 407.25 89.9084 411.68Z" fill="#C78437" stroke="#263238" stroke-miterlimit="10"/>
<path d="M90.2102 399.66C86.4271 397.316 82.3103 395.559 78.0002 394.45C77.0118 393.849 75.8727 393.543 74.7163 393.566C73.5599 393.589 72.434 393.941 71.4702 394.58C70.1902 395.43 70.6202 401.85 70.6202 401.85V435.22" stroke="#263238" stroke-miterlimit="10" stroke-linecap="round"/>
<path d="M96.998 404.61C96.998 404.61 96.068 403.75 94.418 402.51" stroke="#263238" stroke-miterlimit="10" stroke-linecap="round"/>
<path d="M21.7894 372.77C11.4694 371 3.70936 366 4.46936 361.46C5.22936 356.92 14.2194 354.74 24.5494 356.46C34.8794 358.18 42.6294 363.27 41.8694 367.77C41.1094 372.27 32.1194 374.52 21.7894 372.77Z" fill="#C78437" stroke="#263238" stroke-miterlimit="10"/>
<path d="M41.1289 365.26C42.3865 365.727 43.6153 366.268 44.8089 366.88C48.9841 369.078 52.4749 372.381 54.8998 376.428C57.3248 380.476 58.5906 385.112 58.5589 389.83V433.94" stroke="#263238" stroke-miterlimit="10" stroke-linecap="round"/>
<path d="M27.2891 362.65C32.0101 362.795 36.6796 363.675 41.1291 365.26" stroke="#263238" stroke-miterlimit="10" stroke-linecap="round"/>
<path d="M20 362.91C20 362.91 20.83 362.8 22.24 362.71" stroke="#263238" stroke-miterlimit="10" stroke-linecap="round"/>
<path d="M32.1589 403C23.0889 408.24 13.8789 409.27 11.6089 405.32C9.33894 401.37 14.8389 393.93 23.9189 388.7C32.9989 383.47 42.1889 382.43 44.4689 386.38C46.7489 390.33 41.2389 397.75 32.1589 403Z" fill="#C78437" stroke="#263238" stroke-miterlimit="10"/>
<path d="M30 391.69C33.7254 388.79 37.8825 386.492 42.32 384.88C42.32 384.88 53.54 383 56.11 390.3" stroke="#263238" stroke-miterlimit="10" stroke-linecap="round"/>
<path d="M24.4805 396.55C24.4805 396.55 25.0405 395.94 26.0805 394.97" stroke="#263238" stroke-miterlimit="10" stroke-linecap="round"/>
<path d="M54.4012 390.73C54.4012 390.73 67.6612 388.16 67.6612 397.14C67.6612 406.12 58.2512 413.4 54.4012 423.67C50.5512 433.94 43.2712 434.37 39.4012 424.1C35.5312 413.83 41.1312 395 54.4012 390.73Z" fill="#C78437" stroke="#263238" stroke-miterlimit="10"/>
<path d="M63.3789 391.15C63.3789 391.15 51.8289 395.86 48.3789 410.84Z" fill="#C78437"/>
<path d="M63.3789 391.15C63.3789 391.15 51.8289 395.86 48.3789 410.84" stroke="#263238" stroke-miterlimit="10"/>
<path d="M62.5312 410.84V435.22" stroke="#263238" stroke-miterlimit="10" stroke-linecap="round"/>
<path d="M41.2807 482.72C38.1034 472.618 36.4848 462.09 36.4808 451.5C36.465 445.088 37.1084 438.691 38.4008 432.41H92.4008C93.6931 438.691 94.3365 445.088 94.3208 451.5C94.3167 462.09 92.6981 472.618 89.5207 482.72H41.2807Z" fill="#263238"/>
<path d="M93.8284 441.34C93.9784 442.8 94.0984 444.34 94.1884 445.8H36.6484C36.7384 444.29 36.8584 442.8 37.0084 441.34H93.8284Z" fill="#7A7A7A"/>
<path d="M37.2586 464.14C37.0786 462.66 36.9186 461.14 36.8086 459.68H93.9986C93.8786 461.18 93.7286 462.68 93.5486 464.14H37.2586Z" fill="#7A7A7A"/>
<path d="M87.3686 451.75C87.3526 452.214 87.4756 452.672 87.7217 453.066C87.9679 453.459 88.326 453.77 88.7501 453.959C89.1742 454.147 89.645 454.205 90.1021 454.125C90.5592 454.044 90.9818 453.828 91.3157 453.506C91.6496 453.184 91.8796 452.769 91.9762 452.315C92.0728 451.861 92.0315 451.388 91.8578 450.958C91.684 450.527 91.3857 450.159 91.001 449.899C90.6163 449.639 90.1627 449.5 89.6986 449.5C89.0919 449.492 88.5067 449.724 88.0703 450.145C87.6339 450.567 87.3817 451.143 87.3686 451.75Z" fill="#8C8C8C"/>
<path d="M75.7279 451.75C75.712 452.214 75.835 452.672 76.0811 453.066C76.3273 453.459 76.6854 453.77 77.1095 453.959C77.5336 454.148 78.0043 454.205 78.4615 454.125C78.9186 454.044 79.3412 453.829 79.6751 453.506C80.009 453.184 80.239 452.769 80.3356 452.315C80.4321 451.861 80.3909 451.388 80.2172 450.958C80.0434 450.528 79.745 450.159 79.3603 449.899C78.9756 449.639 78.5221 449.5 78.0579 449.5C77.7572 449.495 77.4584 449.549 77.1785 449.659C76.8986 449.769 76.6432 449.934 76.4268 450.142C76.2105 450.351 76.0374 450.601 75.9175 450.877C75.7975 451.153 75.7331 451.449 75.7279 451.75Z" fill="#8C8C8C"/>
<path d="M64.0912 451.75C64.0753 452.214 64.1983 452.672 64.4444 453.066C64.6906 453.459 65.0486 453.77 65.4727 453.959C65.8968 454.148 66.3676 454.205 66.8248 454.125C67.2819 454.044 67.7045 453.829 68.0384 453.506C68.3723 453.184 68.6023 452.769 68.6989 452.315C68.7954 451.861 68.7542 451.388 68.5804 450.958C68.4067 450.528 68.1083 450.159 67.7236 449.899C67.3389 449.639 66.8854 449.5 66.4212 449.5C66.1205 449.495 65.8216 449.549 65.5418 449.659C65.2619 449.769 65.0065 449.934 64.7901 450.142C64.5738 450.351 64.4007 450.601 64.2808 450.877C64.1608 451.153 64.0964 451.449 64.0912 451.75Z" fill="#8C8C8C"/>
<path d="M52.4506 451.75C52.4346 452.214 52.5579 452.673 52.8045 453.067C53.051 453.46 53.4097 453.771 53.8344 453.96C54.2591 454.148 54.7304 454.205 55.1878 454.124C55.6452 454.042 56.0678 453.826 56.4014 453.503C56.7349 453.179 56.9641 452.763 57.0595 452.309C57.155 451.854 57.1123 451.381 56.937 450.951C56.7617 450.521 56.4618 450.152 56.0757 449.894C55.6897 449.635 55.2352 449.498 54.7706 449.5C54.1649 449.492 53.5808 449.724 53.146 450.146C52.7112 450.568 52.4611 451.144 52.4506 451.75Z" fill="#8C8C8C"/>
<path d="M40.7982 451.75C40.7823 452.214 40.9053 452.672 41.1514 453.066C41.3976 453.459 41.7557 453.77 42.1798 453.959C42.6039 454.147 43.0747 454.205 43.5318 454.125C43.9889 454.044 44.4115 453.828 44.7454 453.506C45.0793 453.184 45.3093 452.769 45.4059 452.315C45.5025 451.861 45.4612 451.388 45.2875 450.958C45.1137 450.527 44.8154 450.159 44.4307 449.899C44.046 449.639 43.5924 449.5 43.1283 449.5C42.5216 449.492 41.9364 449.724 41.5 450.145C41.0636 450.567 40.8114 451.143 40.7982 451.75Z" fill="#8C8C8C"/>
<path d="M446.922 474.34H312.602L332.752 400.19H426.772L446.922 474.34Z" fill="black" stroke="#263238" stroke-linecap="round" stroke-linejoin="round"/>
<path d="M437.79 440.75L426.77 400.19H332.75L321.73 440.75H437.79Z" fill="black" stroke="black" stroke-linecap="round" stroke-linejoin="round"/>
<path d="M481.842 474.34H277.672V481.86H481.842V474.34Z" fill="black" stroke="#263238" stroke-linecap="round" stroke-linejoin="round"/>
<path d="M670.121 39.3301H89.3906V407.97H670.121V39.3301Z" fill="black" stroke="#263238" stroke-linecap="round" stroke-linejoin="round"/>
<path d="M651.522 53.3901H108.012V393.93H651.522V53.3901Z" fill="white" fill-opacity="0.4" stroke="#263238" stroke-linecap="round" stroke-linejoin="round"/>
<path d="M651.522 53.3901H108.012V79.0201H651.522V53.3901Z" fill="#263238" stroke="#263238" stroke-linecap="round" stroke-linejoin="round"/>
<path d="M632.73 199.74V201.74H630.73" stroke="#263238" stroke-linecap="round" stroke-linejoin="round"/>
<path d="M626.661 201.74H490.301" stroke="#263238" stroke-linecap="round" stroke-linejoin="round" stroke-dasharray="4.07 4.07"/>
<path d="M488.262 201.74H486.262V199.74" stroke="#263238" stroke-linecap="round" stroke-linejoin="round"/>
<path d="M486.262 195.75V141.91" stroke="#263238" stroke-linecap="round" stroke-linejoin="round" stroke-dasharray="3.99 3.99"/>
<path d="M486.262 139.91V137.91H488.262" stroke="#263238" stroke-linecap="round" stroke-linejoin="round"/>
<path d="M492.332 137.91H628.702" stroke="#263238" stroke-linecap="round" stroke-linejoin="round" stroke-dasharray="4.07 4.07"/>
<path d="M630.73 137.91H632.73V139.91" stroke="#263238" stroke-linecap="round" stroke-linejoin="round"/>
<path d="M632.73 143.9V197.75" stroke="#263238" stroke-linecap="round" stroke-linejoin="round" stroke-dasharray="3.99 3.99"/>
<path d="M632.73 280.31V282.31H630.73" stroke="#263238" stroke-linecap="round" stroke-linejoin="round"/>
<path d="M626.661 282.31H490.301" stroke="#263238" stroke-linecap="round" stroke-linejoin="round" stroke-dasharray="4.07 4.07"/>
<path d="M488.262 282.31H486.262V280.31" stroke="#263238" stroke-linecap="round" stroke-linejoin="round"/>
<path d="M486.262 276.32V222.48" stroke="#263238" stroke-linecap="round" stroke-linejoin="round" stroke-dasharray="3.99 3.99"/>
<path d="M486.262 220.48V218.48H488.262" stroke="#263238" stroke-linecap="round" stroke-linejoin="round"/>
<path d="M492.332 218.48H628.702" stroke="#263238" stroke-linecap="round" stroke-linejoin="round" stroke-dasharray="4.07 4.07"/>
<path d="M630.73 218.48H632.73V220.48" stroke="#263238" stroke-linecap="round" stroke-linejoin="round"/>
<path d="M632.73 224.47V278.32" stroke="#263238" stroke-linecap="round" stroke-linejoin="round" stroke-dasharray="3.99 3.99"/>
<path d="M632.73 360.88V362.88H630.73" stroke="#263238" stroke-linecap="round" stroke-linejoin="round"/>
<path d="M626.661 362.88H490.301" stroke="#263238" stroke-linecap="round" stroke-linejoin="round" stroke-dasharray="4.07 4.07"/>
<path d="M488.262 362.88H486.262V360.88" stroke="#263238" stroke-linecap="round" stroke-linejoin="round"/>
<path d="M486.262 356.9V303.05" stroke="#263238" stroke-linecap="round" stroke-linejoin="round" stroke-dasharray="3.99 3.99"/>
<path d="M486.262 301.05V299.05H488.262" stroke="#263238" stroke-linecap="round" stroke-linejoin="round"/>
<path d="M492.332 299.05H628.702" stroke="#263238" stroke-linecap="round" stroke-linejoin="round" stroke-dasharray="4.07 4.07"/>
<path d="M630.73 299.05H632.73V301.05" stroke="#263238" stroke-linecap="round" stroke-linejoin="round"/>
<path d="M632.73 305.04V358.89" stroke="#263238" stroke-linecap="round" stroke-linejoin="round" stroke-dasharray="3.99 3.99"/>
<path d="M380.4 93.5H331.03C326.269 93.5 322.41 97.3593 322.41 102.12V108.15C322.41 112.911 326.269 116.77 331.03 116.77H380.4C385.161 116.77 389.02 112.911 389.02 108.15V102.12C389.02 97.3593 385.161 93.5 380.4 93.5Z" fill="#263238" stroke="#263238" stroke-linecap="round" stroke-linejoin="round"/>
<path d="M461.451 93.5H412.081C407.32 93.5 403.461 97.3593 403.461 102.12V108.15C403.461 112.911 407.32 116.77 412.081 116.77H461.451C466.212 116.77 470.071 112.911 470.071 108.15V102.12C470.071 97.3593 466.212 93.5 461.451 93.5Z" fill="#263238" stroke="#263238" stroke-linecap="round" stroke-linejoin="round"/>
<path d="M542.502 93.5H493.132C488.371 93.5 484.512 97.3593 484.512 102.12V108.15C484.512 112.911 488.371 116.77 493.132 116.77H542.502C547.262 116.77 551.122 112.911 551.122 108.15V102.12C551.122 97.3593 547.262 93.5 542.502 93.5Z" fill="#263238" stroke="#263238" stroke-linecap="round" stroke-linejoin="round"/>
<path d="M285.359 299.54H349.019" stroke="#263238" stroke-linecap="round" stroke-linejoin="round"/>
<path d="M285.359 312.35H349.019" stroke="#263238" stroke-linecap="round" stroke-linejoin="round"/>
<path d="M285.359 325.17H349.019" stroke="#263238" stroke-linecap="round" stroke-linejoin="round"/>
<path d="M285.359 337.99H349.019" stroke="#263238" stroke-linecap="round" stroke-linejoin="round"/>
<path d="M285.359 350.81H349.019" stroke="#263238" stroke-linecap="round" stroke-linejoin="round"/>
<path d="M360.551 299.54H424.201" stroke="#263238" stroke-linecap="round" stroke-linejoin="round"/>
<path d="M360.551 312.35H424.201" stroke="#263238" stroke-linecap="round" stroke-linejoin="round"/>
<path d="M360.551 325.17H424.201" stroke="#263238" stroke-linecap="round" stroke-linejoin="round"/>
<path d="M360.551 337.99H424.201" stroke="#263238" stroke-linecap="round" stroke-linejoin="round"/>
<path d="M360.551 350.81H424.201" stroke="#263238" stroke-linecap="round" stroke-linejoin="round"/>
<path d="M427.412 178.49H285.152V282.45H427.412V178.49Z" fill="#263238" stroke="#263238" stroke-linecap="round" stroke-linejoin="round"/>
<path d="M427.402 220.36L407.862 208.97L371.912 248.84L341.422 233.99L285.152 282.45H427.402V220.36Z" fill="#C78437" stroke="#263238" stroke-linecap="round" stroke-linejoin="round"/>
<path d="M326.391 206.48C327.606 198.805 322.368 191.599 314.693 190.384C307.018 189.17 299.811 194.408 298.597 202.083C297.383 209.758 302.62 216.965 310.296 218.179C317.971 219.393 325.177 214.155 326.391 206.48Z" fill="#C78437" stroke="#263238" stroke-linecap="round" stroke-linejoin="round"/>
<path d="M639.898 114.5L638.548 107.36L632.548 102.22L624.668 113.54C625.797 114.014 626.96 114.402 628.148 114.7C628.728 114.7 631.428 119.33 632.978 120.7C633.888 121.509 635.043 121.988 636.258 122.06C636.258 122.06 649.388 165.13 649.968 166.29C650.548 167.45 677.788 194.68 677.788 194.68L684.548 176.68L658.668 157.36L639.898 114.5Z" fill="#FFB8B8" stroke="#263238" stroke-miterlimit="10"/>
<path d="M642.679 120.87L637.109 124.87C640.059 134.53 649.459 165.24 649.939 166.22C650.519 167.38 677.759 194.61 677.759 194.61L684.519 176.61L658.639 157.29L642.679 120.87Z" fill="#C78437" stroke="#263238" stroke-linecap="round" stroke-linejoin="round"/>
<path d="M675.387 246.29L674.117 270.54L697.767 275.09L714.647 271.35C716.135 266.333 716.518 261.053 715.768 255.874C715.019 250.695 713.156 245.739 710.307 241.35L675.387 246.29Z" fill="#263238" stroke="#263238" stroke-linecap="round" stroke-linejoin="round"/>
<path d="M674.551 182.51C674.551 182.51 664.441 208.86 666.891 218.35C668.252 223.896 671.207 228.923 675.391 232.81C675.391 232.81 673.551 244.15 675.391 246.29C677.231 248.43 692.241 247.21 697.141 246.6C702.041 245.99 709.701 244.15 710.311 241.39C710.921 238.63 707.711 223.32 707.711 222.39C707.711 221.46 703.031 197.2 700.891 191.07C698.751 184.94 693.891 177.9 693.891 177.9L674.551 182.51Z" fill="#C78437" stroke="#263238" stroke-linecap="round" stroke-linejoin="round"/>
<path d="M661.76 362.43L657.89 367.57C657.89 367.57 649.55 371.44 649.75 372.05C649.95 372.66 651.75 373.47 653.62 373.47C655.49 373.47 660.13 373.07 660.13 373.07L669.69 370.22C669.69 370.22 673.35 369.41 673.15 366.96C672.701 364.332 672.032 361.746 671.15 359.23L661.76 362.43Z" fill="white" stroke="#263238" stroke-linecap="round" stroke-linejoin="round"/>
<path d="M675.937 256C675.937 256 641.057 300.9 642.877 306.36C644.697 311.82 661.757 362.45 661.757 362.45L671.117 359.25L663.847 310.49L690.497 287.39L694.127 260.55" fill="#263238"/>
<path d="M675.937 256C675.937 256 641.057 300.9 642.877 306.36C644.697 311.82 661.757 362.45 661.757 362.45L671.117 359.25L663.847 310.49L690.497 287.39L694.127 260.55" stroke="#263238" stroke-linecap="round" stroke-linejoin="round"/>
<path d="M683.341 403.87C683.341 403.87 675.801 410.49 675.061 411.23C674.321 411.97 665.311 414.36 665.131 415.83C664.951 417.3 668.991 418.4 669.731 418.4C670.471 418.4 680.731 417.53 682.151 417.87C683.571 418.21 694.561 416.01 694.931 414.87C695.301 413.73 693.271 404.75 693.271 404.75L683.341 403.87Z" fill="white" stroke="#263238" stroke-linecap="round" stroke-linejoin="round"/>
<path d="M683.219 255.53L679.109 331.7L681.779 405.65L693.609 406.56L699.439 332.17L714.649 271.35" fill="#263238"/>
<path d="M683.219 255.53L679.109 331.7L681.779 405.65L693.609 406.56L699.439 332.17L714.649 271.35" stroke="#263238" stroke-linecap="round" stroke-linejoin="round"/>
<path d="M676.399 182.19C675.999 175.52 671.609 170.01 671.609 170.01C671.609 170.01 666.259 170.43 664.189 169.78C662.119 169.13 662.859 165.37 663.409 163.78C663.959 162.19 663.579 156.73 663.579 156.73C662.859 155.707 662.255 154.607 661.779 153.45C661.679 152.69 665.579 151.51 666.519 150.45C667.459 149.39 667.069 147.63 667.999 144.15C668.929 140.67 673.089 135.62 673.089 135.62C673.089 135.62 674.509 133.74 678.089 134.83C681.669 135.92 687.789 147.38 690.729 151.76C693.669 156.14 693.049 164.19 692.539 165.76C692.029 167.33 689.629 169.94 689.269 171.76C688.909 173.58 687.849 174.97 690.569 178.54" fill="#FFB8B8"/>
<path d="M676.399 182.19C675.999 175.52 671.609 170.01 671.609 170.01C671.609 170.01 666.259 170.43 664.189 169.78C662.119 169.13 662.859 165.37 663.409 163.78C663.959 162.19 663.579 156.73 663.579 156.73C662.859 155.707 662.255 154.607 661.779 153.45C661.679 152.69 665.579 151.51 666.519 150.45C667.459 149.39 667.069 147.63 667.999 144.15C668.929 140.67 673.089 135.62 673.089 135.62C673.089 135.62 674.509 133.74 678.089 134.83C681.669 135.92 687.789 147.38 690.729 151.76C693.669 156.14 693.049 164.19 692.539 165.76C692.029 167.33 689.629 169.94 689.269 171.76C688.909 173.58 687.849 174.97 690.569 178.54" stroke="#263238" stroke-miterlimit="10"/>
<path d="M669.219 149.07L668.309 151.74" stroke="#263238" stroke-miterlimit="10"/>
<path d="M668.508 145.89C668.508 145.89 670.838 142.73 671.508 146.89" stroke="#263238" stroke-miterlimit="10"/>
<path d="M666.76 158.66L667.13 159.66C666.757 159.906 666.337 160.073 665.896 160.149C665.456 160.224 665.004 160.208 664.57 160.1" stroke="#263238" stroke-miterlimit="10"/>
<path d="M682.497 153.6C682.497 153.6 678.078 152.49 678.638 150.89C679.198 149.29 680.887 148.15 678.477 145.48C676.067 142.81 673.707 138.68 674.597 136.66C675.487 134.64 671.538 137.28 671.208 136.48L670.878 135.69L670.688 134.18C670.688 134.18 671.377 129.43 675.367 129C679.357 128.57 679.877 129.64 682.177 129.11C684.477 128.58 696.377 130.19 701.107 138.45C705.837 146.71 705.877 157.7 701.107 162.13C696.337 166.56 690.937 170.39 686.847 170.13C682.757 169.87 684.847 159 685.297 156.88C685.747 154.76 682.497 153.6 682.497 153.6Z" fill="black"/>
<path d="M699 136.08C699 136.08 700.67 133.37 702.32 133.69C703.97 134.01 709.32 134.69 706.87 136.69C704.42 138.69 703.3 140.82 701.15 138.46L699 136.08Z" fill="black"/>
<path d="M702.278 133.69C702.278 133.69 698.538 131.44 701.778 127.51C705.018 123.58 712.308 126.16 714.558 130.21C716.808 134.26 713.488 136.65 711.328 136.99C709.833 137.086 708.361 136.59 707.228 135.61L702.278 133.69Z" fill="black"/>
<path d="M680.908 154.26C680.908 154.26 686.198 149.68 687.908 153.2C689.618 156.72 683.338 161.58 681.128 161.64C680.583 161.727 680.025 161.626 679.545 161.353C679.065 161.08 678.693 160.653 678.488 160.14" fill="#FFB8B8"/>
<path d="M680.908 154.26C680.908 154.26 686.198 149.68 687.908 153.2C689.618 156.72 683.338 161.58 681.128 161.64C680.583 161.727 680.025 161.626 679.545 161.353C679.065 161.08 678.693 160.653 678.488 160.14" stroke="#263238" stroke-miterlimit="10"/>
<path d="M692.81 171.86L671.82 179.13L672.05 186.22L695.6 177.63L692.81 171.86Z" fill="white" stroke="#263238" stroke-miterlimit="10"/>
<path d="M628.936 99.9705L580.144 92.4347C575.439 91.708 571.036 94.933 570.309 99.6379L569.389 105.597C568.662 110.302 571.887 114.705 576.592 115.432L625.384 122.968C630.088 123.695 634.492 120.47 635.218 115.765L636.139 109.805C636.865 105.1 633.64 100.697 628.936 99.9705Z" fill="#C78437" stroke="#263238" stroke-linecap="round" stroke-linejoin="round"/>
<path d="M639.897 114.5L637.437 109.21L632.167 103.88C631.587 103.3 629.657 102.72 629.467 105.04C629.277 107.36 633.327 109.67 633.327 109.67C633.327 109.67 633.717 116.05 634.687 117.21C635.657 118.37 638.687 118.95 638.687 118.95" fill="#FFB8B8"/>
<path d="M639.897 114.5L637.437 109.21L632.167 103.88C631.587 103.3 629.657 102.72 629.467 105.04C629.277 107.36 633.327 109.67 633.327 109.67C633.327 109.67 633.717 116.05 634.687 117.21C635.657 118.37 638.687 118.95 638.687 118.95" stroke="#263238" stroke-linecap="round" stroke-linejoin="round"/>
<path d="M636.411 288.12H575.641V294.93H636.411V288.12Z" fill="#C7C7C7" stroke="#263238" stroke-linecap="round" stroke-linejoin="round"/>
<path d="M653.241 335.17L652.441 329.82H634.371L631.461 335.17H653.241Z" fill="#C7C7C7" stroke="#263238" stroke-linecap="round" stroke-linejoin="round"/>
<path d="M667.6 379.19L666.8 373.85H648.73L645.82 379.19H667.6Z" fill="#C7C7C7" stroke="#263238" stroke-linecap="round" stroke-linejoin="round"/>
<path d="M682.95 423.22L682.15 417.87H664.07L661.16 423.22H682.95Z" fill="#C7C7C7" stroke="#263238" stroke-linecap="round" stroke-linejoin="round"/>
<path d="M532.589 482.19C557.389 399.87 596.109 274.45 599.949 267.69C603.759 261.77 613.339 261.16 613.539 261.14C614.484 260.958 615.332 260.441 615.927 259.684C616.522 258.928 616.824 257.982 616.778 257.02C616.732 256.059 616.34 255.146 615.676 254.45C615.011 253.754 614.117 253.321 613.159 253.23C612.599 253.23 599.339 254 593.289 263.41C588.289 271.24 535.169 446.15 524.289 482.19H532.589Z" fill="#C7C7C7" stroke="#263238" stroke-linecap="round" stroke-linejoin="round"/>
<path d="M606.309 254.46L608.719 261.5L611.339 261.3L608.519 253.86L606.309 254.46Z" fill="#263238" stroke="#263238" stroke-linecap="round" stroke-linejoin="round"/>
<path d="M689.629 482.19H698.059L593.659 187.84C593.209 186.983 592.463 186.318 591.561 185.969C590.658 185.62 589.659 185.61 588.75 185.94C587.84 186.271 587.082 186.921 586.614 187.768C586.147 188.616 586.003 189.604 586.209 190.55L689.629 482.19Z" fill="#C7C7C7" stroke="#263238" stroke-linecap="round" stroke-linejoin="round"/>
<path d="M685.628 186.65C683.45 186.14 681.191 186.075 678.988 186.46C674.578 187 652.768 208 652.768 208C652.768 208 640.198 206.85 634.678 206.85C629.158 206.85 605.398 203.26 605.398 203.26L604.848 212.09L653.608 224.23C654.48 224.447 655.402 224.314 656.178 223.86L685.438 206.61" fill="#C78437"/>
<path d="M685.628 186.65C683.45 186.14 681.191 186.075 678.988 186.46C674.578 187 652.768 208 652.768 208C652.768 208 640.198 206.85 634.678 206.85C629.158 206.85 605.398 203.26 605.398 203.26L604.848 212.09L653.608 224.23C654.48 224.447 655.402 224.314 656.178 223.86L685.438 206.61" stroke="#263238" stroke-linecap="round" stroke-linejoin="round"/>
<path d="M605.399 203.21L597.059 199.32L592.699 196.42C592.699 196.42 590.089 197 590.959 198.74C591.829 200.48 595.319 201.94 595.319 201.94L590.319 202.77C589.724 202.864 589.172 203.134 588.733 203.546C588.294 203.958 587.99 204.493 587.859 205.08C587.729 205.623 587.755 206.192 587.931 206.722C588.108 207.252 588.429 207.723 588.859 208.08L589.499 208.62C589.499 208.62 588.919 212.11 591.239 213.27C593.559 214.43 604.839 212.04 604.839 212.04L605.399 203.21Z" fill="#FFB8B8" stroke="#263238" stroke-linecap="round" stroke-linejoin="round"/>
<path d="M460.659 235.89L475.749 294.89L457.999 298.44L454.449 284.69L460.659 235.89Z" fill="#EFEDE3" stroke="#263238" stroke-linecap="round" stroke-linejoin="round"/>
<path d="M415.378 462.87C414.845 465.373 414.452 467.904 414.198 470.45C414.198 472.24 411.898 479.14 412.658 480.93C413.418 482.72 415.468 482.21 417.768 482.47C420.068 482.73 430.548 482.47 430.548 482.47C431.482 480.566 431.753 478.405 431.318 476.33C430.664 473.931 429.699 471.629 428.448 469.48V462.48L415.378 462.87Z" fill="white" stroke="#263238" stroke-linecap="round" stroke-linejoin="round"/>
<path d="M431.521 478.64H412.601C412.443 479.398 412.464 480.182 412.661 480.93C413.431 482.72 415.471 482.21 417.771 482.47C420.071 482.73 430.551 482.47 430.551 482.47C431.137 481.275 431.468 479.97 431.521 478.64Z" fill="white" stroke="#263238" stroke-linecap="round" stroke-linejoin="round"/>
<path d="M457.457 469.13L463.457 473.36C463.457 473.36 474.377 476.17 474.907 478.11C475.437 480.05 475.077 480.92 474.197 481.45C473.317 481.98 444.277 482.51 443.917 481.45C443.557 480.39 444.797 474.06 444.797 472.3C444.797 470.54 444.867 469.21 444.867 469.21L457.457 469.13Z" fill="white" stroke="#263238" stroke-linecap="round" stroke-linejoin="round"/>
<path d="M475.128 479.78L443.998 478.89C443.846 479.735 443.815 480.597 443.908 481.45C444.268 482.51 473.308 481.98 474.188 481.45C474.481 481.283 474.724 481.04 474.889 480.746C475.055 480.451 475.137 480.118 475.128 479.78Z" fill="white" stroke="#263238" stroke-linecap="round" stroke-linejoin="round"/>
<path d="M413.808 307.76L412.418 342.99L414.508 469.48H428.978L438.658 357.3L444.858 469.21H458.938L461.318 344.18L460.818 303.02L413.808 307.76Z" fill="#263238" stroke="#263238" stroke-linecap="round" stroke-linejoin="round"/>
<path d="M423.401 229.17L402.551 241.66L414.081 307.76H458.451L460.661 235.89L441.141 230.12L423.401 229.17Z" fill="#EFEDE3" stroke="#263238" stroke-linecap="round" stroke-linejoin="round"/>
<path d="M446.589 246.32L452.029 234.2L444.879 229.67L446.589 246.32Z" fill="white" stroke="#263238" stroke-linecap="round" stroke-linejoin="round"/>
<path d="M452.028 234.2L454.098 244.1L449.008 241.58L452.028 234.2Z" fill="white" stroke="#263238" stroke-linecap="round" stroke-linejoin="round"/>
<path d="M445.998 188.7C445.998 188.7 451.728 208.06 452.148 216.13C452.568 224.2 450.098 227.65 448.038 228.34L446.208 229.04L446.598 246.32L440.408 237.56L439.878 234.56L427.878 222.8L425.168 215.2C425.168 215.2 420.578 216.12 419.108 211.97C417.638 207.82 419.418 205.52 419.418 205.52C419.418 205.52 413.288 199.07 415.418 191.23C417.548 183.39 423.138 175.56 433.738 175.56C444.338 175.56 451.598 182 445.998 188.7Z" fill="#FFB6B6" stroke="#263238" stroke-linecap="round" stroke-linejoin="round"/>
<path d="M415.387 191.24C417.517 183.4 423.107 175.57 433.707 175.57C444.307 175.57 451.597 182 445.997 188.7C445.997 188.7 442.377 191.7 439.827 191.24C437.277 190.78 435.627 188.93 431.307 191.24C426.987 193.55 426.557 195.39 428.007 198.38C429.457 201.37 429.257 202.76 428.587 203.91C428.517 204.04 428.447 204.19 428.367 204.35L432.527 214.75C432.527 214.75 433.847 211.98 439.327 209.68C444.807 207.38 451.327 210.83 451.327 210.83C455.607 229.46 446.197 229.04 446.197 229.04C446.197 229.04 435.087 227 431.797 224C428.507 221 427.997 218.92 427.697 215.7C427.517 213.78 427.527 209.51 427.567 206.35C427.267 207.18 427.057 207.86 427.057 207.86C426.365 206.544 425.183 205.553 423.767 205.1C422.304 204.71 420.747 204.874 419.397 205.56C419.397 205.56 413.267 199.08 415.387 191.24Z" fill="black"/>
<path d="M441.598 198.61L443.598 204.38C443.598 204.38 450.138 208.29 448.758 208.75C447.378 209.21 442.758 207.83 442.758 207.83" stroke="#263238" stroke-linecap="round" stroke-linejoin="round"/>
<path d="M448.87 214.29C448.87 214.29 446.16 217.05 441.02 213.59" stroke="#FFB6B6" stroke-linecap="round" stroke-linejoin="round"/>
<path d="M437.171 203.72C437.321 204.52 437.871 205.1 438.391 205.01C438.911 204.92 439.221 204.2 439.061 203.4C438.901 202.6 438.361 202.02 437.841 202.11C437.321 202.2 437.001 202.92 437.171 203.72Z" fill="#263238"/>
<path d="M445.3 202.59C445.46 203.39 446 203.97 446.53 203.88C447.06 203.79 447.35 203.07 447.19 202.26C447.03 201.45 446.49 200.88 445.97 200.97C445.45 201.06 445.15 201.78 445.3 202.59Z" fill="#263238"/>
<path d="M447.159 197.78C446.504 197.47 445.788 197.31 445.064 197.31C444.339 197.31 443.624 197.47 442.969 197.78" stroke="#263238" stroke-linecap="round" stroke-linejoin="round"/>
<path d="M438.448 198.35C437.561 198.288 436.672 198.437 435.853 198.785C435.035 199.133 434.31 199.669 433.738 200.35" stroke="#263238" stroke-linecap="round" stroke-linejoin="round"/>
<path d="M440.398 237.56L438.338 244.43L423.398 229.17L427.858 222.81L439.868 234.57L440.398 237.56Z" fill="white" stroke="#263238" stroke-linecap="round" stroke-linejoin="round"/>
<path d="M394.859 303.49L446.779 301.73L458.209 294.18C458.209 294.18 471.279 290.51 469.029 290.24C466.779 289.97 458.029 285.3 454.129 287.37C450.229 289.44 445.789 294.69 445.789 294.69L411.189 290.22L394.859 303.49Z" fill="#FFB6B6" stroke="#263238" stroke-linecap="round" stroke-linejoin="round"/>
<path d="M482.501 305.42L476.891 302.4L485.061 298.79L482.501 305.42Z" fill="#FFB6B6" stroke="#263238" stroke-linecap="round" stroke-linejoin="round"/>
<path d="M433.598 306.87L461.548 309.53L499.258 294.45L472.638 292.68L433.598 306.87Z" fill="#C78437" stroke="#263238" stroke-linecap="round" stroke-linejoin="round"/>
<path d="M461.551 309.53L465.541 262.95L505.031 251.42L499.261 294.45L461.551 309.53Z" fill="#C78437" stroke="#263238" stroke-linecap="round" stroke-linejoin="round"/>
<path d="M412.309 236.78C412.309 236.78 400.769 240.78 398.559 244.32C396.349 247.86 392.789 297.11 392.789 297.11L411.419 290.9L413.199 258.07" fill="#EFEDE3"/>
<path d="M412.309 236.78C412.309 236.78 400.769 240.78 398.559 244.32C396.349 247.86 392.789 297.11 392.789 297.11L411.419 290.9L413.199 258.07" stroke="#263238" stroke-linecap="round" stroke-linejoin="round"/>
<path d="M414.969 290.9L396.389 306.12L391.129 296.8L414.079 285.58L414.969 290.9Z" fill="white" stroke="#263238" stroke-linecap="round" stroke-linejoin="round"/>
<path d="M492.27 297.11C492.27 297.11 493.47 301.19 494.43 301.19C495.39 301.19 497.32 299.99 496.36 298.31C495.4 296.63 492.83 294.89 492.27 297.11Z" fill="#FFB6B6" stroke="#263238" stroke-linecap="round" stroke-linejoin="round"/>
<path d="M484.319 297C484.319 297 481.169 304.58 482.499 305.47C483.829 306.36 491.819 303.25 492.259 301.47C492.699 299.69 494.529 289 491.869 289.89C489.209 290.78 485.209 294.28 484.319 297Z" fill="#FFB6B6" stroke="#263238" stroke-linecap="round" stroke-linejoin="round"/>
<path d="M274.492 179.16H113.742V281.98H274.492V179.16Z" fill="#263238" stroke="black" stroke-linecap="round" stroke-linejoin="round"/>
<path d="M113.742 179.16L274.502 281.98" stroke="black" stroke-linecap="round" stroke-linejoin="round"/>
<path d="M274.502 179.16L113.742 281.98" stroke="black" stroke-linecap="round" stroke-linejoin="round"/>
<path d="M114.873 207.75C114.873 207.75 120.963 203.02 121.443 201.23C121.923 199.44 121.633 188.39 121.633 188.39C121.633 188.39 122.153 186.75 120.323 186.9C118.493 187.05 118.373 188.57 118.193 189.23C118.013 189.89 116.993 197.05 116.993 197.05L115.083 193.56L114.083 181.41C114.083 181.41 112.083 181.79 111.633 182.47C111.183 183.15 107.493 191.19 106.893 192.31C106.293 193.43 105.703 205.94 105.703 205.94L106.163 214.27L112.083 216.85L114.873 207.75Z" fill="#9E616A" stroke="#263238" stroke-linecap="round" stroke-linejoin="round"/>
<path d="M114.41 213.37L105.18 209.09C105.18 209.09 88.5099 239.4 87.2499 244C85.9899 248.6 85.2499 256.88 85.9799 260.66C86.7099 264.44 89.9799 268.24 90.7799 269C91.5799 269.76 107.45 265.21 107.45 265.21L108.45 240.21L114.41 213.37Z" fill="#C78437" stroke="#263238" stroke-miterlimit="10"/>
<path d="M151.074 205.21C151.074 205.21 153.264 208.92 153.514 210.9C153.764 212.88 154.254 217.07 154.254 217.07C154.254 217.07 155.984 221.76 155.734 223.25C155.484 224.74 153.024 226.25 153.024 226.25C153.024 226.25 151.294 233.91 150.304 236.13C149.314 238.35 139.684 235.39 139.684 235.39L137.214 241.32L119.214 236.62L121.684 225.51L117.684 206.24C117.684 206.24 122.374 198.34 125.584 197.35C128.794 196.36 147.404 196.55 151.074 205.21Z" fill="#9E616A" stroke="#263238" stroke-miterlimit="10"/>
<path d="M151.82 215.46C151.82 216.53 151.58 217.39 151.29 217.39C151 217.39 150.75 216.53 150.75 215.46C150.75 214.39 150.99 213.54 151.29 213.54C151.59 213.54 151.82 214.4 151.82 215.46Z" fill="#263238"/>
<path d="M150.242 211.83C150.242 211.83 150.862 209.36 152.862 210.91" stroke="#263238" stroke-miterlimit="10"/>
<path d="M151.273 227C151.273 227 148.343 227.92 147.113 224.53" stroke="#263238" stroke-miterlimit="10"/>
<path d="M151.072 205.21C151.072 205.21 144.422 204.87 144.662 205.58C144.902 206.29 147.312 208.26 146.602 210.16C145.892 212.06 143.142 214.6 143.142 214.6C143.142 214.6 141.142 220.03 140.392 220.75C139.642 221.47 138.882 217.75 137.702 216.06C136.522 214.37 134.002 214.35 131.782 217.32C130.382 219.18 130.922 227.14 130.212 227.85C129.502 228.56 122.752 228.26 122.752 228.26C122.752 228.26 118.052 221.56 114.302 215.35C110.552 209.14 118.702 196.35 120.732 194.69C124.282 191.84 131.392 191.61 133.292 191.61C135.192 191.61 133.292 189.48 136.132 189.48C138.225 189.641 140.252 190.288 142.052 191.37C142.052 191.37 139.682 187.82 143.712 189.48C147.742 191.14 157.002 200.09 151.072 205.21Z" fill="black"/>
<path d="M132.523 221.76C132.523 221.76 133.013 224.76 134.993 225.96C136.973 227.16 138.203 226.21 138.203 226.21C138.203 226.21 137.953 229.91 138.693 230.9" stroke="#263238" stroke-miterlimit="10"/>
<path d="M133.373 471.84C133.063 471.894 132.776 472.043 132.554 472.267C132.332 472.491 132.185 472.779 132.133 473.09C131.783 475.31 131.043 480.29 131.483 480.93C132.033 481.77 150.133 484.83 154.583 484.83C159.033 484.83 167.393 485.94 168.223 484.27C169.053 482.6 169.613 482.05 168.503 481.49C167.393 480.93 157.923 476.76 155.973 475.09C154.195 473.375 152.525 471.552 150.973 469.63C150.808 469.426 150.591 469.27 150.344 469.179C150.098 469.087 149.832 469.064 149.573 469.11L133.373 471.84Z" fill="#C78437" stroke="#263238" stroke-miterlimit="10"/>
<path d="M168.221 484.27L168.441 483.85C165.801 483.75 161.841 483.59 157.371 483.44C151.541 483.24 139.491 480.44 133.231 478.88C132.997 478.823 132.752 478.824 132.518 478.88C132.284 478.937 132.066 479.048 131.884 479.206C131.701 479.363 131.558 479.562 131.468 479.785C131.377 480.008 131.34 480.25 131.361 480.49C131.369 480.643 131.41 480.794 131.481 480.93C132.031 481.77 150.131 484.83 154.581 484.83C159.031 484.83 167.391 485.94 168.221 484.27Z" fill="white" stroke="#263238" stroke-miterlimit="10"/>
<path d="M78.4217 469.86C78.7026 469.994 78.9362 470.21 79.0917 470.48C80.1872 472.555 81.4129 474.559 82.7617 476.48C83.5917 477.31 86.1017 478.71 86.1017 479.82V480.82C86.0991 481.219 85.9388 481.6 85.6559 481.881C85.373 482.162 84.9904 482.32 84.5917 482.32H64.8617C64.6543 482.322 64.4487 482.281 64.258 482.199C64.0672 482.118 63.8955 481.997 63.7536 481.846C63.6117 481.695 63.5027 481.516 63.4335 481.32C63.3643 481.125 63.3365 480.917 63.3517 480.71C63.6396 477.409 64.171 474.133 64.9417 470.91C66.4217 464.5 76.2117 468.8 78.4217 469.86Z" fill="#C78437" stroke="#263238" stroke-miterlimit="10"/>
<path d="M86.1034 479.82C86.0929 479.621 86.0309 479.428 85.9234 479.26H64.8634C64.483 479.262 64.1172 479.407 63.8391 479.666C63.561 479.926 63.3911 480.281 63.3634 480.66C63.3482 480.867 63.3761 481.076 63.4451 481.272C63.5142 481.468 63.623 481.648 63.7648 481.8C63.9066 481.952 64.0782 482.073 64.269 482.155C64.4597 482.238 64.6655 482.281 64.8734 482.28H84.5934C84.9921 482.28 85.3747 482.122 85.6576 481.841C85.9405 481.56 86.1007 481.179 86.1034 480.78V479.82Z" fill="white" stroke="#263238" stroke-miterlimit="10"/>
<path d="M78.1021 312.89C78.1021 312.89 79.4121 340.43 79.4121 351.01V397.78C79.4121 397.78 71.8921 417.78 70.7821 427.29C69.7821 435.66 65.6521 465.89 64.7821 471.45C64.7326 471.78 64.7954 472.117 64.9605 472.407C65.1255 472.697 65.3831 472.924 65.6921 473.05C67.5681 473.887 69.5445 474.479 71.5721 474.81C73.7421 475.02 76.5721 473.55 77.7421 472.89C78.0718 472.702 78.3157 472.394 78.4221 472.03C78.9721 470.29 80.7121 464.83 81.8721 462.28C83.2621 459.22 102.462 402.79 103.582 398.34C104.702 393.89 104.692 381.63 104.692 381.63L107.002 351.29H110.342L139.002 399.73C139.002 399.73 136.222 416.73 136.222 425.34C136.222 432.92 132.882 466.43 132.222 473.09C132.182 473.479 132.296 473.868 132.539 474.174C132.782 474.48 133.134 474.68 133.522 474.73C136.832 475.223 140.177 475.434 143.522 475.36C146.792 475.15 150.232 472.71 151.522 471.66C151.706 471.521 151.855 471.341 151.957 471.134C152.059 470.928 152.112 470.7 152.112 470.47V466.47C152.112 464.8 151.552 463.68 151.552 462.57C151.552 461.46 163.232 400.85 162.122 395.84C161.012 390.83 140.962 339.89 140.962 339.89L139.202 319.89L78.1021 312.89Z" fill="#263238" stroke="#263238" stroke-miterlimit="10"/>
<path d="M141.51 295.4C142.97 288.756 145.185 282.301 148.11 276.16C149.11 274 150.8 260.05 150.28 253.79C150.103 252.181 149.51 250.647 148.56 249.337C147.61 248.027 146.335 246.987 144.86 246.32C141.13 245.42 138.68 245.01 138.68 245.01L108.54 236.41C108.54 236.41 101 235 96.2605 239.17C91.5205 243.34 88.3805 254.89 88.1305 258.54C87.8805 262.19 88.9905 294.25 79.5405 308.18C74.7905 315.18 82.4305 320.83 82.4305 320.83C82.4305 320.83 95.7805 323.65 107.62 325.69C148.77 332.76 140.42 319.17 140.42 319.17C139.365 311.245 139.735 303.195 141.51 295.4Z" fill="#C78437" stroke="#263238" stroke-miterlimit="10"/>
<path d="M143.202 245.61C143.202 245.61 138.442 239.92 134.042 238.42C129.642 236.92 117.752 234.64 113.262 233.82C112.037 233.562 110.76 233.727 109.641 234.288C108.522 234.849 107.627 235.774 107.102 236.91C111.932 239.712 117.172 241.737 122.632 242.91C129.433 244.191 136.3 245.092 143.202 245.61Z" fill="white" stroke="#263238" stroke-linecap="round" stroke-linejoin="round"/>
<path d="M227.392 283.18C227.392 283.18 231.182 277.8 232.742 277.28C234.302 276.76 244.232 276.28 244.232 276.28C244.232 276.28 245.652 275.74 245.652 277.28C245.652 278.82 244.312 279.01 243.732 279.2C243.152 279.39 236.812 280.74 236.812 280.74L240.082 282.08H251.002C251.002 282.08 250.812 283.81 250.242 284.2C249.672 284.59 242.742 288.2 241.782 288.81C240.822 289.42 229.672 290.73 229.672 290.73L222.172 290.92L222.372 284L227.392 283.18Z" fill="#9E616A" stroke="#263238" stroke-linecap="round" stroke-linejoin="round"/>
<path d="M144.86 246.32C144.86 246.32 150.75 247.32 154.21 250.78C157.67 254.24 173.16 271.57 173.16 271.57L225 284L225.33 293.09L167.07 293.33L139.59 282.45" fill="#C78437"/>
<path d="M144.86 246.32C144.86 246.32 150.75 247.32 154.21 250.78C157.67 254.24 173.16 271.57 173.16 271.57L225 284L225.33 293.09L167.07 293.33L139.59 282.45" stroke="#263238" stroke-miterlimit="10"/>
<path d="M479.42 157.55C475.113 157.552 470.894 158.775 467.253 161.077C463.612 163.378 460.697 166.665 458.848 170.555C456.999 174.446 456.29 178.781 456.803 183.058C457.317 187.334 459.032 191.378 461.75 194.72L458.46 205.54L469.06 200.62C472.128 202.186 475.511 203.036 478.955 203.105C482.398 203.175 485.813 202.463 488.941 201.023C492.07 199.583 494.832 197.452 497.018 194.79C499.204 192.129 500.759 189.006 501.564 185.658C502.37 182.309 502.405 178.821 501.669 175.456C500.932 172.092 499.441 168.938 497.31 166.233C495.178 163.527 492.461 161.34 489.362 159.836C486.264 158.332 482.864 157.551 479.42 157.55Z" fill="#263238" stroke="black" stroke-linecap="round" stroke-linejoin="round"/>
<path d="M476.999 190H476.709C476.226 189.956 475.761 189.796 475.354 189.533C474.946 189.27 474.608 188.912 474.369 188.49L466.159 174C465.962 173.655 465.835 173.274 465.786 172.879C465.736 172.485 465.764 172.085 465.869 171.701C465.974 171.318 466.153 170.958 466.397 170.644C466.641 170.33 466.944 170.067 467.289 169.87C467.635 169.673 468.016 169.546 468.41 169.496C468.805 169.446 469.205 169.475 469.588 169.58C469.972 169.685 470.331 169.864 470.645 170.108C470.959 170.351 471.222 170.655 471.419 171L477.539 181.78L493.999 162.68C494.522 162.071 495.265 161.695 496.065 161.634C496.864 161.573 497.656 161.833 498.264 162.355C498.873 162.878 499.249 163.62 499.31 164.42C499.371 165.22 499.112 166.011 498.589 166.62L479.319 189C479.029 189.325 478.67 189.583 478.27 189.756C477.869 189.929 477.436 190.012 476.999 190Z" fill="#C78437" stroke="#263238" stroke-linecap="round" stroke-linejoin="round"/>
<path d="M77.3506 134.74C81.6564 134.743 85.8731 135.967 89.5119 138.269C93.1507 140.571 96.0625 143.857 97.9099 147.747C99.7572 151.636 100.464 155.969 99.9495 160.244C99.4346 164.519 97.7187 168.56 95.0006 171.9L98.2906 182.73L87.6906 177.8C84.6227 179.37 81.2387 180.223 77.7934 180.295C74.3481 180.367 70.9313 179.657 67.8002 178.218C64.6692 176.778 61.9055 174.647 59.7172 171.985C57.529 169.323 55.9733 166.199 55.1672 162.849C54.3611 159.498 54.3256 156.009 55.0635 152.642C55.8013 149.276 57.2933 146.121 59.427 143.415C61.5607 140.709 64.2805 138.523 67.3817 137.02C70.4828 135.517 73.8845 134.738 77.3306 134.74H77.3506Z" fill="#263238" stroke="black" stroke-linecap="round" stroke-linejoin="round"/>
<path d="M69.0005 166.25L59.2305 159.37V155.45L69.0005 148.58V152.88L62.7305 157.41L69.0005 161.94V166.25Z" fill="black"/>
<path d="M72.1406 169L79.9206 143H82.7806L75.0006 169H72.1406Z" fill="black"/>
<path d="M85.832 166.25V161.94L92.132 157.38L85.832 152.88V148.58L95.632 155.45V159.37L85.832 166.25Z" fill="black"/>
</svg>
