<svg width="606" height="649" viewBox="0 0 606 649" fill="none" xmlns="http://www.w3.org/2000/svg">
<g clip-path="url(#clip0_562_3421)">
<path d="M425.415 649H259.557C257.629 648.998 255.781 648.202 254.418 646.786C253.054 645.37 252.287 643.451 252.285 641.449V521.038C252.287 519.036 253.054 517.117 254.418 515.701C255.781 514.286 257.629 513.49 259.557 513.487H425.415C427.343 513.49 429.191 514.286 430.555 515.702C431.918 517.117 432.685 519.037 432.687 521.038V641.449C432.685 643.451 431.918 645.37 430.554 646.786C429.191 648.201 427.343 648.998 425.415 649Z" fill="#25313C"/>
<path d="M154.372 335.118C155.484 333.64 156.27 331.928 156.676 330.1C157.081 328.273 157.096 326.375 156.719 324.541C156.341 322.707 155.582 320.981 154.493 319.485C153.404 317.989 152.012 316.759 150.416 315.882L149.371 200.69L128.637 210.57L133.197 321.978C131.956 324.86 131.776 328.115 132.691 331.126C133.606 334.137 135.553 336.694 138.164 338.314C140.774 339.934 143.865 340.503 146.852 339.914C149.84 339.325 152.515 337.619 154.372 335.118Z" fill="#9E616A"/>
<path d="M153.815 171.526C153.815 171.526 133.646 161.366 130.856 180.534C128.067 199.701 116.594 249.587 116.594 249.587L151.41 247.03L153.815 171.526Z" fill="#9E616A"/>
<path d="M154.372 335.118C155.484 333.64 156.27 331.928 156.676 330.1C157.081 328.273 157.096 326.375 156.719 324.541C156.341 322.707 155.582 320.981 154.493 319.485C153.404 317.989 152.012 316.759 150.416 315.882L149.371 200.69L128.637 210.57L133.197 321.978C131.956 324.86 131.776 328.115 132.691 331.126C133.606 334.137 135.553 336.694 138.164 338.314C140.774 339.934 143.865 340.503 146.852 339.914C149.84 339.325 152.515 337.619 154.372 335.118Z" fill="#9E616A"/>
<path d="M153.815 171.526C153.815 171.526 133.646 161.366 130.856 180.534C128.067 199.701 116.594 249.587 116.594 249.587L151.41 247.03L153.815 171.526Z" fill="#C78437"/>
<path d="M95.4165 615.262C94.6021 615.3 93.7959 615.078 93.1071 614.626C92.4183 614.173 91.8802 613.511 91.5657 612.73C91.2512 611.949 91.1755 611.087 91.3489 610.259C91.5222 609.432 91.9363 608.68 92.5349 608.106C92.6352 607.692 92.7071 607.395 92.8074 606.981C92.7715 606.891 92.7354 606.801 92.6991 606.711C91.8787 604.699 90.5039 602.983 88.7475 601.78C86.9911 600.576 84.9314 599.938 82.827 599.947C80.7227 599.955 78.6676 600.608 76.9199 601.825C75.1721 603.042 73.8097 604.769 73.0037 606.787C69.7824 614.843 65.6811 622.913 64.6713 631.431C64.2265 635.196 64.4141 639.013 65.2258 642.712C57.6599 625.574 53.7311 606.948 53.7058 588.095C53.7042 583.364 53.9573 578.637 54.464 573.935C54.8827 570.081 55.4636 566.254 56.2067 562.455C60.2619 541.84 68.9685 522.518 81.6116 506.076C87.7308 502.609 92.6795 497.277 95.7908 490.8C96.918 488.472 97.7146 485.986 98.156 483.421C97.4657 483.515 96.7641 483.573 96.0738 483.62C95.8588 483.632 95.6325 483.644 95.4174 483.656L95.3363 483.659C94.5777 483.695 93.8254 483.502 93.1699 483.103C92.5145 482.705 91.984 482.118 91.6421 481.414C91.3003 480.71 91.1617 479.918 91.2431 479.134C91.3246 478.35 91.6225 477.607 92.1011 476.995C92.3991 476.614 92.6973 476.234 92.9957 475.853C93.4484 475.266 93.9124 474.69 94.365 474.102C94.4173 474.047 94.4664 473.988 94.5121 473.926C95.0328 473.256 95.5532 472.598 96.0738 471.928C95.1236 470.397 93.8456 469.114 92.3394 468.18C87.1227 465.007 79.9255 467.205 76.1572 472.105C72.3776 477.005 71.6647 483.879 72.9773 490.001C74.2682 495.21 76.4035 500.153 79.2918 504.619C79.0088 504.995 78.7146 505.359 78.4317 505.735C73.2602 512.64 68.7528 520.055 64.9742 527.873C65.8931 519.115 64.7963 510.254 61.7742 502.022C58.7113 494.349 52.9703 487.887 47.9147 481.254C41.8421 473.287 29.3897 476.764 28.3198 486.864C28.3094 486.962 28.2993 487.06 28.2895 487.157C29.0404 487.597 29.7755 488.064 30.4947 488.558C31.3982 489.185 32.0983 490.08 32.5032 491.127C32.9082 492.174 32.999 493.324 32.764 494.426C32.529 495.527 31.9789 496.53 31.186 497.301C30.3931 498.073 29.3942 498.577 28.3203 498.749L28.2103 498.767C28.4778 501.577 28.9507 504.362 29.6248 507.098C31.5782 514.736 35.03 521.872 39.7639 528.059C44.4978 534.247 50.4116 539.352 57.1346 543.055C57.5759 543.29 58.006 543.525 58.4474 543.748C54.651 554.92 52.2697 566.556 51.3634 578.365C50.8502 585.332 50.8806 592.331 51.4539 599.293L51.4199 599.046C49.9713 591.305 45.9943 584.319 40.1603 579.27C31.4953 571.879 19.2533 569.157 9.90541 563.216C8.91195 562.554 7.75681 562.2 6.57621 562.197C5.39562 562.194 4.23881 562.542 3.24225 563.199C2.24569 563.857 1.45094 564.796 0.951724 565.907C0.452506 567.018 0.269656 568.254 0.42473 569.469C0.437267 569.556 0.449998 569.642 0.462946 569.729C1.85644 570.318 3.21323 570.997 4.52543 571.761C5.27635 572.201 6.01142 572.668 6.73062 573.162C7.63413 573.789 8.33425 574.685 8.7392 575.732C9.14414 576.779 9.23503 577.928 8.99999 579.03C8.76495 580.132 8.21494 581.134 7.422 581.905C6.62906 582.677 5.63019 583.182 4.55626 583.353L4.44621 583.371C4.36698 583.383 4.2991 583.395 4.22 583.406C6.60098 589.31 9.94276 594.743 14.099 599.469C19.2333 605.19 25.4389 609.762 32.3351 612.904C39.2313 616.046 46.673 617.692 54.2037 617.742H54.2151C56.2593 626.966 59.2212 635.945 63.0531 644.533H94.6253C94.7386 644.169 94.8404 643.793 94.9422 643.428C92.0198 643.619 89.0859 643.438 86.206 642.888C88.5485 639.903 90.8909 636.895 93.2334 633.91C93.2857 633.855 93.3348 633.796 93.3805 633.734C94.5687 632.207 95.7683 630.691 96.9565 629.163L96.9571 629.161C97.0204 624.479 96.503 619.807 95.4175 615.262L95.4165 615.262Z" fill="#25313C"/>
<path d="M560.885 615.262C560.071 615.3 559.265 615.078 558.576 614.626C557.887 614.173 557.349 613.511 557.034 612.73C556.72 611.949 556.644 611.087 556.818 610.259C556.991 609.432 557.405 608.68 558.004 608.106C558.104 607.692 558.176 607.395 558.276 606.981C558.24 606.891 558.204 606.801 558.168 606.711C557.347 604.699 555.973 602.983 554.216 601.78C552.46 600.576 550.4 599.938 548.296 599.947C546.191 599.955 544.136 600.608 542.389 601.825C540.641 603.042 539.278 604.769 538.472 606.787C535.251 614.843 531.15 622.913 530.14 631.431C529.695 635.196 529.883 639.013 530.695 642.712C523.129 625.574 519.2 606.948 519.175 588.095C519.173 583.364 519.426 578.637 519.933 573.935C520.351 570.081 520.932 566.254 521.676 562.455C525.731 541.84 534.437 522.518 547.08 506.076C553.2 502.609 558.148 497.277 561.26 490.8C562.387 488.472 563.183 485.986 563.625 483.421C562.934 483.515 562.233 483.573 561.543 483.62C561.328 483.632 561.101 483.644 560.886 483.656L560.805 483.659C560.046 483.695 559.294 483.502 558.639 483.103C557.983 482.705 557.453 482.118 557.111 481.414C556.769 480.71 556.63 479.918 556.712 479.134C556.793 478.35 557.091 477.607 557.57 476.995C557.868 476.614 558.166 476.234 558.464 475.853C558.917 475.266 559.381 474.69 559.834 474.102C559.886 474.047 559.935 473.988 559.981 473.926C560.501 473.256 561.022 472.598 561.543 471.928C560.592 470.397 559.314 469.114 557.808 468.18C552.591 465.007 545.394 467.205 541.626 472.105C537.846 477.005 537.133 483.879 538.446 490.001C539.737 495.21 541.872 500.153 544.761 504.619C544.478 504.995 544.183 505.359 543.9 505.735C538.729 512.64 534.221 520.055 530.443 527.873C531.362 519.115 530.265 510.254 527.243 502.022C524.18 494.349 518.439 487.887 513.383 481.254C507.311 473.287 494.858 476.764 493.789 486.864C493.778 486.962 493.768 487.06 493.758 487.157C494.509 487.597 495.244 488.064 495.963 488.558C496.867 489.185 497.567 490.08 497.972 491.127C498.377 492.174 498.468 493.324 498.233 494.426C497.998 495.527 497.448 496.53 496.655 497.301C495.862 498.073 494.863 498.577 493.789 498.749L493.679 498.767C493.946 501.577 494.419 504.362 495.093 507.098C497.047 514.736 500.499 521.872 505.233 528.059C509.966 534.247 515.88 539.352 522.603 543.055C523.045 543.29 523.475 543.525 523.916 543.748C520.12 554.92 517.738 566.556 516.832 578.365C516.319 585.332 516.349 592.331 516.923 599.293L516.889 599.046C515.44 591.305 511.463 584.319 505.629 579.27C496.964 571.879 484.722 569.157 475.374 563.216C474.381 562.554 473.226 562.2 472.045 562.197C470.864 562.194 469.708 562.542 468.711 563.199C467.714 563.857 466.92 564.796 466.42 565.907C465.921 567.018 465.738 568.254 465.893 569.469C465.906 569.556 465.919 569.642 465.932 569.729C467.325 570.318 468.682 570.997 469.994 571.761C470.745 572.201 471.48 572.668 472.199 573.162C473.103 573.789 473.803 574.685 474.208 575.732C474.613 576.779 474.704 577.928 474.469 579.03C474.234 580.132 473.684 581.134 472.891 581.905C472.098 582.677 471.099 583.182 470.025 583.353L469.915 583.371C469.836 583.383 469.768 583.395 469.689 583.406C472.07 589.31 475.412 594.743 479.568 599.469C484.702 605.19 490.908 609.762 497.804 612.904C504.7 616.046 512.142 617.692 519.673 617.742H519.684C521.728 626.966 524.69 635.945 528.522 644.533H560.094C560.207 644.169 560.309 643.793 560.411 643.428C557.489 643.619 554.555 643.438 551.675 642.888C554.017 639.903 556.36 636.895 558.702 633.91C558.754 633.855 558.804 633.796 558.849 633.734C560.037 632.207 561.237 630.691 562.425 629.163L562.426 629.161C562.489 624.479 561.972 619.807 560.886 615.262L560.885 615.262Z" fill="#25313C"/>
<path d="M439.294 644.319C439.203 644.319 439.113 644.316 439.022 644.314C436.711 644.177 434.541 643.12 432.962 641.363C431.384 639.606 430.518 637.285 430.546 634.882C430.546 620.262 420.489 611.733 410.522 609.767C400.555 607.802 388.186 611.905 383.024 625.509L378.331 637.743C374.273 641.947 368.775 644.307 363.043 644.307C357.31 644.307 351.812 641.947 347.754 637.743L347.477 637.455L347.649 637.088L430.546 460.969V456.653C430.432 455.323 430.432 453.984 430.549 452.654L430.546 9.07984C430.546 7.86396 430.781 6.66047 431.238 5.54073C431.694 4.421 432.362 3.40785 433.203 2.56139C434.044 1.71493 435.039 1.0524 436.131 0.613107C437.223 0.173811 438.389 -0.0333165 439.559 0.00404298C441.87 0.141166 444.04 1.1982 445.619 2.95513C447.198 4.71206 448.063 7.03353 448.035 9.43635V452.705C448.15 454.036 448.149 455.374 448.033 456.704L448.035 460.968L531.105 637.455L530.827 637.743C526.769 641.947 521.271 644.307 515.539 644.307C509.807 644.307 504.309 641.947 500.251 637.743L500.128 637.549L495.557 625.509C490.395 611.906 478.028 607.806 468.059 609.767C458.092 611.733 448.035 620.262 448.035 634.882V635.239C448.035 637.646 447.114 639.955 445.475 641.658C443.836 643.361 441.613 644.318 439.294 644.319Z" fill="black"/>
<path d="M591.042 321.064H287.549C284.021 321.06 280.639 319.603 278.144 317.012C275.65 314.422 274.246 310.91 274.242 307.247V86.9149C274.246 83.2515 275.649 79.7393 278.144 77.149C280.639 74.5586 284.021 73.1015 287.549 73.0974H591.042C594.57 73.1016 597.952 74.5588 600.447 77.1491C602.941 79.7395 604.344 83.2516 604.348 86.9149V307.247C604.344 310.91 602.941 314.422 600.446 317.012C597.952 319.602 594.57 321.06 591.042 321.064Z" fill="#222222"/>
<path d="M591.04 322.778H287.547C283.582 322.773 279.78 321.136 276.976 318.224C274.172 315.313 272.595 311.365 272.59 307.247V86.9148C272.594 82.7971 274.172 78.8494 276.976 75.9378C279.78 73.0261 283.582 71.3884 287.547 71.3838H591.04C595.006 71.3885 598.807 73.0263 601.611 75.9379C604.415 78.8495 605.993 82.7972 605.997 86.9148V307.247C605.993 311.365 604.415 315.312 601.611 318.224C598.807 321.135 595.006 322.773 591.04 322.778ZM287.547 74.8117C284.457 74.8152 281.494 76.0915 279.309 78.3605C277.124 80.6294 275.895 83.7059 275.891 86.9148V307.247C275.895 310.456 277.124 313.532 279.309 315.801C281.494 318.07 284.457 319.346 287.547 319.35H591.04C594.131 319.346 597.093 318.07 599.278 315.801C601.463 313.532 602.692 310.456 602.696 307.247V86.9148C602.693 83.7059 601.464 80.6295 599.278 78.3605C597.093 76.0915 594.131 74.8152 591.04 74.8117H287.547Z" fill="#C78437"/>
<path d="M484.167 86.8733H394.422C388.732 86.8667 383.277 84.5167 379.254 80.339C375.23 76.1612 372.967 70.4969 372.961 64.5888V64.1836H505.628V64.5888C505.621 70.4969 503.358 76.1612 499.335 80.339C495.312 84.5167 489.857 86.8667 484.167 86.8733Z" fill="black"/>
<path d="M484.558 334.84H394.812C389.123 334.833 383.668 332.483 379.644 328.305C375.621 324.127 373.358 318.463 373.352 312.555V312.15H506.018V312.555C506.012 318.463 503.749 324.127 499.726 328.305C495.702 332.483 490.247 334.833 484.558 334.84Z" fill="black"/>
<path d="M604.855 645.454C604.856 645.632 604.822 645.809 604.757 645.975C604.691 646.14 604.595 646.29 604.473 646.416C604.351 646.543 604.207 646.643 604.047 646.711C603.888 646.779 603.718 646.814 603.546 646.813H1.30947C0.962181 646.813 0.629141 646.67 0.383567 646.415C0.137994 646.16 0 645.814 0 645.454C0 645.093 0.137994 644.747 0.383567 644.492C0.629141 644.237 0.962181 644.094 1.30947 644.094H603.546C603.718 644.093 603.888 644.128 604.047 644.196C604.207 644.264 604.351 644.365 604.473 644.491C604.594 644.617 604.691 644.767 604.757 644.933C604.822 645.098 604.856 645.275 604.855 645.454Z" fill="#C78437"/>
<path d="M202.812 613.801H218.675L226.222 550.264L202.809 550.265L202.812 613.801Z" fill="#9E616A"/>
<path d="M197.439 605.675L222.516 604.121V615.278L246.358 632.375C247.535 633.22 248.422 634.433 248.889 635.838C249.356 637.242 249.378 638.765 248.952 640.184C248.526 641.603 247.674 642.843 246.522 643.723C245.369 644.604 243.975 645.079 242.544 645.079H212.689L207.543 634.043L205.534 645.079H194.277L197.439 605.675Z" fill="black"/>
<path d="M148.86 260.397L147.306 268.087L145.984 296.453L199.072 288.989L203.149 256.143L197.514 246.529L148.86 260.397Z" fill="#9E616A"/>
<path d="M122.527 613.801H138.39L145.937 550.264L122.523 550.265L122.527 613.801Z" fill="#9E616A"/>
<path d="M113.918 501.549L113.918 501.379L119.856 472.594L123.518 458.264L113.34 374.361C110.943 313.403 145.001 284.101 145.269 283.812L146.007 283.015L200.626 281.627C230.014 299.911 226.687 399.912 232.068 467.921C232.452 472.771 237.274 479.929 236.089 484.542C226.685 521.137 229.44 560.711 222.276 561.881L200.311 561.564L188.966 508.101L199.438 467.325C194.794 466.437 191.584 442.859 191.584 442.859C189.56 440.364 182.574 419.143 182.574 419.143L173.258 360.4L158.292 461.437L161.896 485.14L158.913 493.29L146.14 560.575L146.004 561.659L121.921 559.162L113.918 501.549Z" fill="black"/>
<path d="M117.15 605.675L142.227 604.121V615.278L166.069 632.375C167.246 633.22 168.133 634.433 168.6 635.838C169.067 637.242 169.089 638.765 168.663 640.184C168.237 641.603 167.385 642.843 166.233 643.723C165.08 644.604 163.686 645.079 162.255 645.079H132.4L127.254 634.043L125.245 645.079H113.988L117.15 605.675Z" fill="black"/>
<path d="M192.652 149.463L206.042 164.911L222.124 196.388L214.224 235.201L217.678 253.415L222.779 273.436C203.126 284.724 179.782 269.135 158.336 262.211L137.234 271.891L138.35 245.243L138.922 178.101C138.944 175.522 139.477 172.976 140.486 170.619C141.495 168.263 142.96 166.147 144.79 164.404C146.62 162.66 148.775 161.325 151.122 160.482C153.469 159.64 155.958 159.307 158.434 159.505L172.568 148.691L192.652 149.463Z" fill="#C78437"/>
<path d="M188.905 141.377C204.498 141.377 217.138 128.251 217.138 112.06C217.138 95.8685 204.498 82.7429 188.905 82.7429C173.312 82.7429 160.672 95.8685 160.672 112.06C160.672 128.251 173.312 141.377 188.905 141.377Z" fill="#9E616A"/>
<path d="M222.129 101.48C221.632 104.352 209.746 105.738 210.104 100.628C207.791 105.439 204.336 112.422 208.737 120.421C207.013 122.37 205.927 124.837 205.634 127.466C205.342 130.096 205.857 132.754 207.107 135.061C208.36 137.175 209.409 139.412 210.24 141.739C210.408 142.304 210.527 142.884 210.598 143.47C210.669 144.06 210.585 144.658 210.357 145.203C210.128 145.747 209.763 146.218 209.299 146.566C208.835 146.913 208.289 147.125 207.719 147.178C207.149 147.231 206.576 147.124 206.06 146.868C194.087 140.779 173.208 141.811 160.11 145.526C160.197 142.88 160.162 140.24 160.005 137.607C159.527 140.9 158.248 144.013 156.288 146.65C154.045 147.339 151.846 148.054 149.717 148.761C149.392 148.87 149.045 148.886 148.712 148.807C148.38 148.727 148.074 148.556 147.828 148.31C147.581 148.065 147.404 147.755 147.314 147.413C147.224 147.071 147.225 146.71 147.317 146.369C147.732 144.805 147.809 143.165 147.544 141.566C147.003 138.25 145.397 135.251 144.263 132.106C143.128 128.962 142.482 125.346 143.87 122.311C146.025 117.599 152.099 116.158 154.778 111.745C157.789 106.789 155.45 100.328 155.921 94.4832C156.584 86.2192 163.103 79.5047 170.451 76.2607C183.174 70.6426 199.091 75.1924 208.629 85.5768C209.967 84.6387 211.529 84.104 213.142 84.0321C214.755 83.9601 216.355 84.3536 217.766 85.169C220.584 86.7366 222.609 87.5522 223.874 90.6059C224.983 93.2881 222.635 98.598 222.129 101.48Z" fill="#E7DED0"/>
<path d="M210 446.236L143.576 377.261C142.804 376.458 142.371 375.371 142.371 374.237C142.371 373.103 142.804 372.016 143.575 371.213L190.016 322.989C190.789 322.188 191.837 321.739 192.929 321.739C194.021 321.739 195.068 322.188 195.841 322.989L262.266 391.964C263.037 392.766 263.471 393.854 263.471 394.988C263.471 396.122 263.037 397.209 262.266 398.012L215.825 446.236C215.052 447.037 214.005 447.486 212.913 447.486C211.821 447.486 210.773 447.037 210 446.236Z" fill="#25313C"/>
<path d="M212.912 448.628C212.226 448.63 211.547 448.491 210.914 448.219C210.281 447.947 209.705 447.548 209.222 447.043L142.797 378.069C141.819 377.052 141.27 375.674 141.27 374.237C141.27 372.8 141.819 371.422 142.797 370.405L189.238 322.182C190.217 321.166 191.544 320.596 192.928 320.596C194.312 320.596 195.639 321.166 196.619 322.182L263.043 391.156C264.021 392.173 264.57 393.551 264.57 394.988C264.57 396.425 264.021 397.803 263.043 398.819L216.602 447.043C216.118 447.548 215.543 447.947 214.91 448.219C214.276 448.491 213.597 448.63 212.912 448.628ZM192.928 322.881C192.532 322.88 192.139 322.96 191.773 323.117C191.406 323.274 191.074 323.505 190.794 323.797L144.353 372.021C143.788 372.609 143.47 373.406 143.47 374.237C143.47 375.068 143.788 375.865 144.353 376.453L210.778 445.428C211.353 445.996 212.117 446.313 212.912 446.313C213.706 446.313 214.47 445.996 215.046 445.428L261.487 397.204C262.052 396.615 262.37 395.818 262.37 394.988C262.37 394.157 262.052 393.36 261.487 392.772L195.062 323.797C194.782 323.506 194.45 323.274 194.083 323.117C193.717 322.96 193.324 322.88 192.928 322.881Z" fill="#C78437"/>
<path d="M184.971 329.405C183.859 327.927 183.072 326.214 182.667 324.387C182.261 322.559 182.247 320.662 182.624 318.828C183.001 316.994 183.761 315.268 184.85 313.772C185.939 312.276 187.331 311.046 188.927 310.169L189.972 194.977L210.706 204.857L206.145 316.264C207.387 319.147 207.567 322.402 206.652 325.413C205.736 328.423 203.789 330.981 201.179 332.601C198.569 334.221 195.477 334.79 192.49 334.201C189.503 333.612 186.827 331.905 184.971 329.405Z" fill="#9E616A"/>
<path d="M185.531 165.812C185.531 165.812 205.701 155.653 208.49 174.82C211.279 193.988 222.753 243.874 222.753 243.874L187.937 241.317L185.531 165.812Z" fill="#9E616A"/>
<path d="M184.971 329.405C183.859 327.927 183.072 326.214 182.667 324.387C182.261 322.559 182.247 320.662 182.624 318.828C183.001 316.994 183.761 315.268 184.85 313.772C185.939 312.276 187.331 311.046 188.927 310.169L189.972 194.977L210.706 204.857L206.145 316.264C207.387 319.147 207.567 322.402 206.652 325.413C205.736 328.423 203.789 330.981 201.179 332.601C198.569 334.221 195.477 334.79 192.49 334.201C189.503 333.612 186.827 331.905 184.971 329.405Z" fill="#9E616A"/>
<path d="M185.531 165.812C185.531 165.812 205.701 155.653 208.49 174.82C211.279 193.988 222.753 243.874 222.753 243.874L187.937 241.317L185.531 165.812Z" fill="#C78437"/>
</g>
<defs>
<clipPath id="clip0_562_3421">
<rect width="606" height="649" fill="white"/>
</clipPath>
</defs>
</svg>
