<svg width="752" height="559" viewBox="0 0 752 559" fill="none" xmlns="http://www.w3.org/2000/svg">
<g clip-path="url(#clip0_551_4728)">
<path d="M641.236 553.957C649.206 535.287 654.826 514.967 652.166 494.857C651.254 488.038 649.27 481.406 646.286 475.207C643.882 470.154 640.778 465.464 637.066 461.277C635.783 459.8 634.021 458.821 632.089 458.51C630.157 458.2 628.178 458.577 626.496 459.577C626.236 459.727 625.976 459.887 625.736 460.057C624.434 460.974 623.407 462.229 622.766 463.687C622.642 463.966 622.538 464.253 622.456 464.547C622.089 465.775 621.99 467.068 622.166 468.337C623.568 478.687 623.264 489.196 621.266 499.447C620.756 502.057 620.133 504.644 619.396 507.207C617.742 505.142 615.983 503.163 614.126 501.277C609.312 496.399 603.761 492.309 597.676 489.157H597.666C597.636 489.137 597.616 489.127 597.586 489.107C590.206 485.347 580.366 486.907 574.616 489.467C574.236 489.627 573.876 489.807 573.526 489.977C570.526 491.517 569.036 493.287 570.316 494.447C570.606 494.697 570.896 494.957 571.166 495.217C579.883 503.276 587.025 512.886 592.226 523.557V523.567C594.293 527.816 596.035 532.215 597.436 536.727C599.366 542.957 600.966 549.867 604.736 554.947C605.121 555.482 605.539 555.993 605.986 556.477L639.666 556.207C639.746 556.167 639.816 556.137 639.896 556.097L641.236 556.147C641.186 555.907 641.126 555.667 641.066 555.427V555.407C641.036 555.277 640.996 555.137 640.966 555.017C640.936 554.917 640.916 554.827 640.896 554.747C640.956 554.597 641.016 554.457 641.086 554.307C641.136 554.187 641.186 554.077 641.236 553.957Z" fill="#F0F0F0"/>
<path d="M641.063 555.407C641.053 555.482 641.024 555.553 640.978 555.613C640.932 555.673 640.872 555.721 640.803 555.751C640.733 555.781 640.658 555.793 640.582 555.785C640.507 555.778 640.435 555.751 640.373 555.707C638.989 554.703 637.471 553.899 635.863 553.317C635.853 553.307 635.853 553.317 635.853 553.317C633.824 552.588 631.737 552.033 629.613 551.657C629.593 551.657 629.583 551.647 629.563 551.647C628.703 551.477 627.843 551.327 626.983 551.167C622.803 550.397 618.553 549.467 614.933 547.087C613.46 546.175 612.197 544.961 611.227 543.525C610.256 542.089 609.601 540.465 609.303 538.757C608.773 535.407 609.443 532.037 609.723 528.697C609.743 528.457 609.763 528.207 609.773 527.967C609.793 527.657 609.803 527.357 609.803 527.057C609.906 524.025 609.297 521.011 608.023 518.257C606.388 514.961 604.241 511.943 601.663 509.317C600.333 507.887 598.947 506.511 597.503 505.187H597.493C597.433 505.127 597.383 505.077 597.323 505.027C597.323 505.017 597.313 505.007 597.303 504.997C591.132 499.391 584.133 494.77 576.553 491.297C576.283 491.177 576.003 491.047 575.723 490.927C574.993 490.597 574.263 490.287 573.523 489.977C573.873 489.807 574.233 489.627 574.613 489.467C583.068 493.043 590.871 497.997 597.703 504.127C597.933 504.327 598.163 504.537 598.383 504.747C600.113 506.347 601.76 508.024 603.323 509.777C605.823 512.47 607.849 515.567 609.313 518.937C610.387 521.664 610.861 524.591 610.703 527.517C610.683 528.077 610.643 528.637 610.593 529.207C610.283 532.577 609.593 536.057 610.363 539.427C611.243 543.267 614.223 545.947 617.683 547.587C619.974 548.608 622.377 549.354 624.843 549.807C629.943 550.877 635.213 551.397 639.673 554.137H639.683C639.753 554.187 639.823 554.227 639.883 554.267C639.893 554.267 639.893 554.267 639.893 554.277C640.216 554.469 640.526 554.679 640.823 554.907C640.843 554.917 640.863 554.937 640.883 554.947C640.912 554.968 640.939 554.992 640.963 555.017C641.01 555.07 641.043 555.133 641.06 555.2C641.078 555.268 641.079 555.339 641.063 555.407Z" fill="white"/>
<path d="M598.122 505.09C599.939 502.836 600.896 500.01 600.822 497.116C600.748 494.222 599.647 491.449 597.717 489.291C597.325 488.856 596.63 489.445 597.023 489.88C598.824 491.886 599.849 494.47 599.912 497.165C599.976 499.86 599.074 502.489 597.369 504.578C596.999 505.032 597.754 505.542 598.122 505.09Z" fill="white"/>
<path d="M610.093 527.027C604.214 527.71 598.294 526.153 593.513 522.665C593.04 522.319 592.528 523.072 593.001 523.417C597.983 527.037 604.147 528.646 610.262 527.921C610.845 527.852 610.672 526.957 610.093 527.027Z" fill="white"/>
<path d="M576.616 491.187C576.596 491.227 576.576 491.257 576.556 491.297C576.005 492.31 575.236 493.187 574.303 493.865C573.371 494.543 572.299 495.005 571.166 495.217C570.896 494.957 570.606 494.697 570.316 494.447C570.362 494.419 570.413 494.402 570.466 494.397C571.555 494.277 572.6 493.9 573.515 493.297C574.43 492.693 575.188 491.881 575.726 490.927C575.776 490.847 575.826 490.757 575.866 490.677C575.9 490.628 575.942 490.585 575.992 490.552C576.042 490.52 576.098 490.497 576.156 490.486C576.215 490.475 576.275 490.475 576.334 490.487C576.392 490.5 576.447 490.523 576.496 490.557C576.592 490.627 576.658 490.732 576.681 490.849C576.703 490.965 576.68 491.086 576.616 491.187Z" fill="white"/>
<path d="M73.2593 5.44312C55.2791 5.46339 38.0411 12.615 25.3272 25.3289C12.6133 38.0429 5.46168 55.2808 5.44141 73.261V333.161C5.46168 351.141 12.6133 368.379 25.3272 381.093C38.0411 393.807 55.2791 400.958 73.2593 400.979H677.892C695.872 400.958 713.11 393.807 725.824 381.093C738.538 368.379 745.69 351.141 745.71 333.161V73.261C745.69 55.2808 738.538 38.0429 725.824 25.3289C713.11 12.615 695.872 5.46339 677.892 5.44312H73.2593Z" fill="white"/>
<path d="M677.894 406.422H73.261C53.8377 406.4 35.2162 398.674 21.4818 384.94C7.74743 371.206 0.0218624 352.584 0 333.161V73.261C0.0218624 53.8377 7.74743 35.2162 21.4818 21.4818C35.2162 7.74743 53.8377 0.0218624 73.261 0H677.894C697.317 0.0218491 715.939 7.74741 729.673 21.4818C743.407 35.2161 751.133 53.8377 751.155 73.261V333.161C751.133 352.584 743.407 371.206 729.673 384.94C715.939 398.674 697.317 406.4 677.894 406.422ZM73.261 10.8863C56.7239 10.905 40.8695 17.4826 29.176 29.176C17.4826 40.8695 10.905 56.7239 10.8863 73.261V333.161C10.905 349.698 17.4826 365.552 29.176 377.246C40.8695 388.939 56.7239 395.517 73.261 395.536H677.894C694.431 395.517 710.285 388.939 721.979 377.246C733.672 365.552 740.25 349.698 740.268 333.161V73.261C740.25 56.7239 733.672 40.8695 721.979 29.176C710.285 17.4826 694.431 10.905 677.894 10.8863H73.261Z" fill="#E6E6E6"/>
<path d="M377.199 59.2527H89.6555C83.5186 59.2632 77.636 61.7058 73.2965 66.0453C68.9571 70.3847 66.5145 76.2673 66.5039 82.4042V212.096C66.5014 213.472 66.629 214.845 66.885 216.197C66.9757 216.814 67.1209 217.412 67.266 218.011C68.5832 222.947 71.4906 227.31 75.5381 230.426C79.5856 233.542 84.5475 235.237 89.6555 235.248H377.199C377.671 235.248 378.142 235.23 378.596 235.193H378.923V235.175C379.014 235.178 379.105 235.172 379.195 235.157C379.286 235.157 379.394 235.139 379.485 235.139C379.516 235.142 379.548 235.136 379.576 235.121C379.775 235.103 379.975 235.085 380.156 235.066C380.483 235.012 380.81 234.976 381.118 234.921C381.159 234.906 381.202 234.9 381.245 234.903C381.301 234.875 381.364 234.863 381.427 234.867C381.434 234.86 381.442 234.855 381.452 234.852C381.461 234.849 381.471 234.848 381.481 234.849C381.681 234.813 381.88 234.776 382.08 234.722C382.19 234.706 382.299 234.682 382.406 234.649C382.805 234.559 383.205 234.468 383.586 234.341C383.767 234.286 383.93 234.25 384.112 234.196C384.348 234.123 384.602 234.032 384.838 233.942C384.961 233.907 385.082 233.865 385.2 233.815C385.214 233.814 385.228 233.811 385.241 233.805C385.253 233.798 385.264 233.789 385.273 233.778C385.798 233.593 386.312 233.381 386.815 233.143C387.251 232.944 387.668 232.726 388.085 232.508C388.249 232.436 388.394 232.345 388.557 232.254C388.597 232.237 388.634 232.212 388.666 232.182C389.083 231.928 389.501 231.674 389.9 231.438C389.918 231.42 389.918 231.402 389.936 231.402C389.938 231.402 389.941 231.401 389.943 231.4C389.945 231.399 389.947 231.398 389.949 231.396C389.951 231.395 389.952 231.393 389.953 231.39C389.954 231.388 389.954 231.386 389.954 231.383C390.381 231.116 390.793 230.825 391.188 230.512H391.206C391.315 230.422 391.406 230.349 391.496 230.277C391.623 230.186 391.75 230.077 391.859 229.986C392.077 229.805 392.295 229.623 392.494 229.442C392.617 229.349 392.733 229.246 392.839 229.134C393.147 228.861 393.438 228.571 393.728 228.281C393.883 228.133 394.028 227.975 394.164 227.809C394.389 227.593 394.601 227.362 394.799 227.12C394.98 226.884 395.18 226.648 395.361 226.412C395.576 226.164 395.776 225.904 395.96 225.632C396.286 225.196 396.577 224.761 396.867 224.289C397.103 223.908 397.339 223.509 397.556 223.11C397.665 222.91 397.774 222.692 397.883 222.475C397.901 222.475 397.901 222.457 397.901 222.438C398.101 222.057 398.282 221.676 398.445 221.277C398.518 221.114 398.591 220.969 398.645 220.805C398.79 220.497 398.899 220.17 399.026 219.844C399.226 219.245 399.425 218.628 399.589 218.011C399.734 217.413 399.879 216.814 399.969 216.197C400.225 214.845 400.353 213.472 400.351 212.096V82.4042C400.34 76.2673 397.897 70.3847 393.558 66.0453C389.218 61.7058 383.336 59.2632 377.199 59.2527Z" fill="#C78437"/>
<path opacity="0.3" d="M400.35 96.4475H66.5039V98.2619H400.35V96.4475Z" fill="white"/>
<path opacity="0.3" d="M400.35 116.406H66.5039V118.22H400.35V116.406Z" fill="white"/>
<path opacity="0.3" d="M400.35 136.364H66.5039V138.178H400.35V136.364Z" fill="white"/>
<path opacity="0.3" d="M400.35 156.322H66.5039V158.137H400.35V156.322Z" fill="white"/>
<path opacity="0.3" d="M400.35 176.281H66.5039V178.095H400.35V176.281Z" fill="white"/>
<path opacity="0.3" d="M400.35 196.239H66.5039V198.053H400.35V196.239Z" fill="white"/>
<path opacity="0.3" d="M399.972 216.197C399.881 216.814 399.736 217.413 399.591 218.011H66.7607C66.6513 217.412 66.5786 216.806 66.543 216.197H399.972Z" fill="white"/>
<g opacity="0.1">
<path d="M400.351 184.01V212.096C400.353 213.472 400.225 214.845 399.969 216.197C399.879 216.814 399.734 217.413 399.589 218.011C399.425 218.628 399.226 219.245 399.026 219.844C398.899 220.17 398.79 220.497 398.645 220.805C398.591 220.969 398.518 221.114 398.445 221.277C398.282 221.676 398.101 222.057 397.901 222.438C397.901 222.457 397.901 222.475 397.883 222.475C397.774 222.692 397.665 222.91 397.556 223.11C397.339 223.509 397.103 223.908 396.867 224.289C396.577 224.761 396.286 225.196 395.96 225.632C395.776 225.904 395.576 226.164 395.361 226.412C395.18 226.648 394.98 226.884 394.798 227.119C394.601 227.362 394.389 227.593 394.164 227.809C394.028 227.975 393.883 228.133 393.728 228.281C393.438 228.571 393.147 228.861 392.839 229.134C392.733 229.246 392.617 229.349 392.494 229.442C392.295 229.623 392.077 229.805 391.859 229.986C391.75 230.077 391.623 230.186 391.496 230.277C391.406 230.349 391.315 230.422 391.206 230.512H391.188C390.793 230.825 390.381 231.116 389.954 231.383C389.954 231.386 389.954 231.388 389.953 231.39C389.952 231.393 389.951 231.395 389.949 231.396C389.947 231.398 389.945 231.399 389.943 231.4C389.941 231.401 389.938 231.402 389.936 231.401C389.918 231.401 389.918 231.42 389.9 231.438C389.646 231.619 389.374 231.782 389.101 231.946C388.956 232.036 388.811 232.109 388.666 232.182C388.634 232.212 388.597 232.236 388.557 232.254C388.394 232.345 388.249 232.436 388.085 232.508C387.668 232.726 387.251 232.944 386.815 233.143C386.312 233.381 385.798 233.593 385.273 233.778C385.264 233.789 385.253 233.798 385.241 233.805C385.228 233.811 385.214 233.814 385.2 233.815C385.082 233.865 384.961 233.907 384.838 233.942C384.602 234.032 384.348 234.123 384.112 234.196C383.93 234.25 383.767 234.286 383.586 234.341C383.205 234.468 382.805 234.558 382.406 234.649C382.299 234.682 382.19 234.706 382.08 234.722C381.88 234.776 381.681 234.812 381.481 234.849C381.471 234.847 381.461 234.848 381.452 234.852C381.442 234.855 381.434 234.86 381.427 234.867C381.364 234.863 381.301 234.875 381.245 234.903C381.202 234.9 381.159 234.906 381.118 234.921C380.81 234.976 380.483 235.012 380.156 235.066C379.975 235.085 379.775 235.103 379.576 235.121C379.548 235.136 379.516 235.142 379.485 235.139C379.286 235.157 379.104 235.175 378.923 235.193H378.886C378.687 235.212 378.487 235.212 378.288 235.23C377.925 235.248 377.562 235.248 377.199 235.248H89.6555C84.5475 235.237 79.5856 233.542 75.5381 230.426C71.4906 227.31 68.5832 222.947 67.266 218.011H66.758C66.6486 217.411 66.5759 216.805 66.5403 216.197C66.5221 215.852 66.5039 215.489 66.5039 215.144V183.502C70.3121 183.614 74.0886 184.23 77.7349 185.334C87.6052 188.346 97.2032 193.445 107.509 193.445C108.325 193.445 109.178 193.408 110.013 193.336C120.863 192.428 129.3 185.697 136.321 178.095C136.884 177.496 137.446 176.897 137.973 176.281C139.297 174.811 140.567 173.305 141.801 171.817C145.743 166.839 150.16 162.257 154.991 158.137C155.772 157.502 156.552 156.903 157.35 156.322C162.035 152.829 167.552 150.621 173.353 149.917C174.097 149.845 174.841 149.79 175.585 149.772C183.35 149.537 190.644 152.331 197.285 156.322C198.246 156.903 199.208 157.502 200.133 158.137C203.308 160.289 206.367 162.609 209.296 165.086C213.818 169.058 218.542 172.795 223.448 176.281C223.811 176.535 224.174 176.789 224.537 177.006C225.099 177.387 225.68 177.75 226.26 178.095C231.231 181.29 236.82 183.398 242.662 184.282C242.862 184.318 243.08 184.355 243.297 184.373C252.75 185.479 261.55 182.685 269.588 178.095C270.586 177.514 271.602 176.916 272.582 176.281C278.86 172.108 284.745 167.37 290.163 162.128C291.578 160.804 293.012 159.461 294.499 158.137C295.171 157.538 295.842 156.921 296.532 156.322C307.309 146.851 319.737 138.178 334.416 138.178C335.033 138.178 335.668 138.197 336.303 138.233C346.863 138.741 356.134 143.857 363.918 150.353C366.179 152.229 368.341 154.221 370.395 156.322C370.486 156.413 370.558 156.486 370.649 156.576C371.157 157.084 371.665 157.61 372.137 158.137C377.943 164.215 383.295 170.71 389.609 176.28C390.299 176.915 391.006 177.514 391.732 178.095C393.91 179.902 396.214 181.552 398.627 183.03C399.189 183.375 399.77 183.701 400.351 184.01Z" fill="black"/>
</g>
<g opacity="0.1">
<path d="M400.351 156.594V212.096C400.353 213.472 400.225 214.845 399.969 216.197C399.879 216.814 399.734 217.413 399.589 218.011C399.425 218.628 399.226 219.245 399.026 219.844C398.899 220.17 398.79 220.497 398.645 220.805C398.591 220.969 398.518 221.114 398.445 221.277C398.282 221.676 398.101 222.057 397.901 222.438C397.901 222.457 397.901 222.475 397.883 222.475C397.774 222.692 397.665 222.91 397.556 223.11C397.339 223.509 397.103 223.908 396.867 224.289C396.577 224.761 396.286 225.196 395.96 225.632C395.776 225.904 395.576 226.164 395.361 226.412C395.18 226.648 394.98 226.884 394.798 227.119C394.601 227.362 394.389 227.593 394.164 227.809C394.028 227.975 393.883 228.133 393.728 228.281C393.438 228.571 393.147 228.861 392.839 229.134C392.733 229.246 392.617 229.349 392.494 229.442C392.295 229.623 392.077 229.805 391.859 229.986C391.75 230.077 391.623 230.186 391.496 230.277C391.406 230.349 391.315 230.422 391.206 230.512H391.188C390.793 230.825 390.381 231.116 389.954 231.383C389.954 231.386 389.954 231.388 389.953 231.39C389.952 231.393 389.951 231.395 389.949 231.396C389.947 231.398 389.945 231.399 389.943 231.4C389.941 231.401 389.938 231.402 389.936 231.401C389.918 231.401 389.918 231.42 389.9 231.438C389.646 231.619 389.374 231.782 389.101 231.946C388.956 232.036 388.811 232.109 388.666 232.182C388.634 232.212 388.597 232.236 388.557 232.254C388.394 232.345 388.249 232.436 388.085 232.508C387.668 232.726 387.251 232.944 386.815 233.143C386.312 233.381 385.798 233.593 385.273 233.778C385.264 233.789 385.253 233.798 385.241 233.805C385.228 233.811 385.214 233.814 385.2 233.815C385.082 233.865 384.961 233.907 384.838 233.941C384.602 234.032 384.348 234.123 384.112 234.195C383.93 234.25 383.767 234.286 383.586 234.341C383.205 234.468 382.805 234.558 382.406 234.649C382.299 234.682 382.19 234.706 382.08 234.722C381.88 234.776 381.681 234.812 381.481 234.849C381.471 234.847 381.461 234.848 381.452 234.852C381.442 234.855 381.434 234.86 381.427 234.867C381.364 234.863 381.301 234.875 381.245 234.903C381.202 234.9 381.159 234.906 381.118 234.921C380.81 234.976 380.483 235.012 380.156 235.066C379.975 235.085 379.775 235.103 379.576 235.121C379.548 235.136 379.516 235.142 379.485 235.139C379.394 235.139 379.286 235.157 379.195 235.157C379.105 235.172 379.014 235.178 378.923 235.175C378.845 235.191 378.766 235.197 378.687 235.193H378.596C378.505 235.211 378.397 235.211 378.288 235.23C377.925 235.248 377.562 235.248 377.199 235.248H89.6555C84.5475 235.237 79.5856 233.542 75.5381 230.426C71.4906 227.31 68.5832 222.946 67.266 218.011C67.1209 217.412 66.9757 216.814 66.885 216.197C66.629 214.845 66.5014 213.472 66.5039 212.096V179.782C67.1389 179.238 67.7559 178.676 68.3728 178.095C69.0078 177.496 69.6246 176.897 70.2416 176.281C75.6461 170.655 80.5683 164.586 84.9562 158.137C85.1014 157.937 85.2466 157.756 85.3736 157.556C85.6638 157.139 85.9541 156.74 86.2626 156.322C90.6629 149.882 95.5843 143.814 100.977 138.178C101.594 137.562 102.211 136.963 102.846 136.364C109.596 130.014 117.288 125.278 126.36 124.153C138.862 122.593 150.492 128.381 160.779 136.364C161.541 136.963 162.285 137.562 163.029 138.178C166.549 141.045 169.887 144.166 173.044 147.269C173.879 148.103 174.732 148.938 175.585 149.772C177.78 151.968 180.03 154.163 182.298 156.322C182.951 156.939 183.586 157.538 184.239 158.137C193.311 166.537 203.127 173.922 214.793 176.281C215.592 176.444 216.408 176.589 217.225 176.698C221.633 177.285 226.107 177.144 230.47 176.281C231.196 176.154 231.903 175.99 232.629 175.809C243.551 173.105 253.676 166.301 262.838 158.137C263.492 157.538 264.163 156.939 264.816 156.322C269.497 151.986 273.942 147.341 278.097 142.769C279.476 141.245 280.891 139.703 282.307 138.178C282.887 137.58 283.45 136.981 284.012 136.364C290.085 129.746 296.727 123.675 303.862 118.22C304.714 117.585 305.567 116.986 306.42 116.406C316.018 109.856 326.505 105.647 338.026 106.318C347.534 106.862 356.225 110.781 364.045 116.406C364.843 116.986 365.641 117.585 366.44 118.22C372.391 123.001 377.821 128.395 382.642 134.314C383.205 134.985 383.767 135.675 384.329 136.364C384.62 136.709 384.892 137.072 385.182 137.416L385.781 138.178C390.589 144.184 395.216 150.426 400.133 156.322L400.351 156.594Z" fill="black"/>
</g>
<g opacity="0.1">
<path d="M400.351 133.679V212.096C400.353 213.472 400.225 214.845 399.969 216.197C399.879 216.814 399.734 217.412 399.589 218.011C399.425 218.628 399.226 219.245 399.026 219.844C398.899 220.17 398.79 220.497 398.645 220.805C398.591 220.969 398.518 221.114 398.445 221.277C398.282 221.676 398.101 222.057 397.901 222.438C397.901 222.457 397.901 222.475 397.883 222.475C397.774 222.692 397.665 222.91 397.556 223.11C397.339 223.509 397.103 223.908 396.867 224.289C396.577 224.761 396.286 225.196 395.96 225.632C395.776 225.904 395.576 226.164 395.361 226.412C395.18 226.648 394.98 226.884 394.798 227.119C394.601 227.362 394.389 227.592 394.164 227.809C394.028 227.975 393.883 228.133 393.728 228.281C393.438 228.571 393.147 228.861 392.839 229.133C392.733 229.246 392.617 229.349 392.494 229.442C392.295 229.623 392.077 229.805 391.859 229.986C391.75 230.077 391.623 230.186 391.496 230.277C391.406 230.349 391.315 230.422 391.206 230.512H391.188C390.793 230.825 390.381 231.116 389.954 231.383C389.954 231.386 389.954 231.388 389.953 231.39C389.952 231.393 389.951 231.395 389.949 231.396C389.947 231.398 389.945 231.399 389.943 231.4C389.941 231.401 389.938 231.401 389.936 231.401C389.918 231.401 389.918 231.42 389.9 231.438C389.646 231.619 389.374 231.782 389.101 231.946C388.956 232.036 388.811 232.109 388.666 232.182C388.634 232.212 388.597 232.236 388.557 232.254C388.394 232.345 388.249 232.436 388.085 232.508C387.668 232.726 387.251 232.944 386.815 233.143C386.312 233.381 385.798 233.593 385.273 233.778C385.264 233.789 385.253 233.798 385.241 233.805C385.228 233.811 385.214 233.814 385.2 233.814C385.082 233.865 384.961 233.907 384.838 233.941C384.602 234.032 384.348 234.123 384.112 234.195C383.93 234.25 383.767 234.286 383.586 234.341C383.205 234.468 382.805 234.558 382.406 234.649C382.299 234.682 382.19 234.706 382.08 234.722C381.88 234.776 381.681 234.812 381.481 234.849C381.471 234.847 381.461 234.848 381.452 234.852C381.442 234.855 381.434 234.86 381.427 234.867C381.364 234.863 381.301 234.875 381.245 234.903C381.202 234.9 381.159 234.906 381.118 234.921C380.81 234.976 380.483 235.012 380.156 235.066C379.975 235.084 379.775 235.103 379.576 235.121C379.548 235.135 379.516 235.142 379.485 235.139C379.394 235.139 379.286 235.157 379.195 235.157C379.105 235.172 379.014 235.178 378.923 235.175C378.913 235.185 378.9 235.191 378.886 235.193H378.596C378.142 235.23 377.671 235.248 377.199 235.248H89.6555C84.5475 235.237 79.5856 233.542 75.5381 230.426C71.4906 227.31 68.5832 222.946 67.266 218.011C67.1209 217.412 66.9757 216.814 66.885 216.197C66.629 214.845 66.5014 213.472 66.5039 212.096V165.249C68.3365 162.872 70.175 160.501 72.0196 158.137C72.4914 157.52 72.9632 156.921 73.4349 156.322C75.9206 153.129 78.4245 149.972 81.0009 146.887C83.4684 143.93 86.0631 141.009 88.7665 138.178C89.3471 137.58 89.9276 136.963 90.5264 136.364C97.4095 129.193 105.315 123.079 113.986 118.22C115.166 117.567 116.363 116.968 117.579 116.406C124.016 113.332 130.981 111.516 138.1 111.053C147.438 110.587 156.747 112.425 165.207 116.406C166.477 116.95 167.728 117.567 168.962 118.22C177.835 122.792 186.163 129.197 193.964 136.364C194.636 136.945 195.271 137.561 195.924 138.178C202.111 143.984 207.971 150.208 213.56 156.322C213.977 156.776 214.394 157.248 214.812 157.701C214.939 157.846 215.084 157.991 215.211 158.137C220.654 164.124 226.46 170.184 232.629 175.809C232.792 175.972 232.974 176.117 233.155 176.28C233.826 176.897 234.498 177.496 235.187 178.095C237.618 180.254 240.122 182.322 242.662 184.282C248.682 189.023 255.242 193.037 262.203 196.239C263.673 196.91 265.161 197.509 266.667 198.053C274.963 201.221 283.915 202.281 292.721 201.138C296.766 200.578 300.731 199.542 304.533 198.053C305.984 197.509 307.4 196.892 308.797 196.239C317.996 191.884 326.306 185.298 334.18 178.095C334.833 177.496 335.486 176.897 336.139 176.28C340.621 172.071 344.975 167.698 349.276 163.471C351.09 161.693 352.941 159.897 354.846 158.137C355.499 157.538 356.17 156.939 356.842 156.322C359.128 154.272 361.486 152.258 363.918 150.353C369.861 145.489 376.396 141.399 383.368 138.178C383.967 137.906 384.583 137.652 385.182 137.416C386.108 137.035 387.033 136.691 387.958 136.364C391.954 134.932 396.12 134.029 400.351 133.679Z" fill="black"/>
</g>
<path d="M138.174 121.849C141.18 121.849 143.617 119.412 143.617 116.406C143.617 113.4 141.18 110.963 138.174 110.963C135.167 110.963 132.73 113.4 132.73 116.406C132.73 119.412 135.167 121.849 138.174 121.849Z" fill="white"/>
<path d="M221.635 181.724C224.641 181.724 227.078 179.287 227.078 176.281C227.078 173.274 224.641 170.837 221.635 170.837C218.628 170.837 216.191 173.274 216.191 176.281C216.191 179.287 218.628 181.724 221.635 181.724Z" fill="white"/>
<path d="M334.127 141.807C337.133 141.807 339.57 139.37 339.57 136.364C339.57 133.358 337.133 130.921 334.127 130.921C331.121 130.921 328.684 133.358 328.684 136.364C328.684 139.37 331.121 141.807 334.127 141.807Z" fill="white"/>
<path d="M581.72 182.806H453.372C452.764 182.805 452.161 182.924 451.598 183.156C451.035 183.389 450.524 183.73 450.093 184.16C449.662 184.59 449.321 185.101 449.088 185.663C448.854 186.225 448.734 186.828 448.734 187.437C448.734 188.046 448.854 188.649 449.088 189.211C449.321 189.773 449.662 190.284 450.093 190.714C450.524 191.144 451.035 191.485 451.598 191.718C452.161 191.95 452.764 192.069 453.372 192.068H581.72C582.948 192.068 584.126 191.58 584.995 190.712C585.863 189.843 586.351 188.665 586.351 187.437C586.351 186.209 585.863 185.031 584.995 184.162C584.126 183.294 582.948 182.806 581.72 182.806Z" fill="#E6E6E6"/>
<path d="M581.717 252.934H453.369C452.141 252.934 450.963 253.422 450.095 254.29C449.226 255.159 448.738 256.337 448.738 257.565C448.738 258.793 449.226 259.971 450.095 260.84C450.963 261.708 452.141 262.196 453.369 262.196H581.717C582.945 262.196 584.123 261.708 584.992 260.84C585.86 259.971 586.348 258.793 586.348 257.565C586.348 256.337 585.86 255.159 584.992 254.29C584.123 253.422 582.945 252.934 581.717 252.934Z" fill="#E6E6E6"/>
<path d="M581.717 323.062H453.369C452.141 323.062 450.963 323.55 450.095 324.418C449.226 325.287 448.738 326.465 448.738 327.693C448.738 328.921 449.226 330.099 450.095 330.968C450.963 331.836 452.141 332.324 453.369 332.324H581.717C582.945 332.324 584.123 331.836 584.992 330.968C585.86 330.099 586.348 328.921 586.348 327.693C586.348 326.465 585.86 325.287 584.992 324.418C584.123 323.55 582.945 323.062 581.717 323.062Z" fill="#E6E6E6"/>
<path d="M659.487 199.349C665.874 199.349 671.052 194.171 671.052 187.783C671.052 181.396 665.874 176.218 659.487 176.218C653.1 176.218 647.922 181.396 647.922 187.783C647.922 194.171 653.1 199.349 659.487 199.349Z" fill="#C78437"/>
<path d="M657.911 193.803C657.712 193.803 657.515 193.756 657.336 193.667C657.157 193.577 657.002 193.448 656.882 193.288L653.727 189.081C653.625 188.946 653.551 188.792 653.509 188.628C653.467 188.464 653.458 188.294 653.482 188.127C653.505 187.959 653.562 187.798 653.648 187.653C653.734 187.507 653.848 187.38 653.983 187.279C654.119 187.177 654.273 187.103 654.436 187.061C654.6 187.02 654.771 187.01 654.938 187.034C655.105 187.058 655.266 187.115 655.412 187.201C655.557 187.288 655.684 187.402 655.785 187.537L657.85 190.289L663.151 182.337C663.341 182.053 663.635 181.856 663.969 181.789C664.304 181.722 664.651 181.791 664.935 181.98C665.219 182.169 665.416 182.464 665.483 182.798C665.55 183.133 665.481 183.48 665.292 183.764L658.982 193.23C658.868 193.401 658.714 193.542 658.534 193.642C658.354 193.741 658.153 193.796 657.947 193.802L657.911 193.803Z" fill="white"/>
<path d="M659.487 269.477C665.874 269.477 671.052 264.299 671.052 257.911C671.052 251.524 665.874 246.346 659.487 246.346C653.1 246.346 647.922 251.524 647.922 257.911C647.922 264.299 653.1 269.477 659.487 269.477Z" fill="#C78437"/>
<path d="M657.911 263.931C657.712 263.931 657.515 263.884 657.336 263.795C657.157 263.706 657.002 263.576 656.882 263.416L653.727 259.209C653.625 259.074 653.551 258.92 653.509 258.756C653.467 258.593 653.458 258.422 653.482 258.255C653.505 258.087 653.562 257.926 653.648 257.781C653.734 257.635 653.848 257.508 653.983 257.407C654.119 257.305 654.273 257.231 654.436 257.19C654.6 257.148 654.771 257.138 654.938 257.162C655.105 257.186 655.266 257.243 655.412 257.33C655.557 257.416 655.684 257.53 655.785 257.665L657.85 260.417L663.151 252.465C663.245 252.324 663.365 252.204 663.506 252.11C663.646 252.016 663.804 251.95 663.969 251.917C664.135 251.884 664.306 251.884 664.471 251.917C664.637 251.949 664.795 252.014 664.935 252.108C665.076 252.202 665.197 252.322 665.291 252.463C665.385 252.603 665.45 252.761 665.483 252.926C665.516 253.092 665.517 253.263 665.484 253.428C665.451 253.594 665.386 253.752 665.292 253.892L658.982 263.358C658.868 263.529 658.714 263.67 658.534 263.77C658.354 263.87 658.153 263.925 657.947 263.93L657.911 263.931Z" fill="white"/>
<path d="M659.487 339.605C665.874 339.605 671.052 334.427 671.052 328.04C671.052 321.652 665.874 316.474 659.487 316.474C653.1 316.474 647.922 321.652 647.922 328.04C647.922 334.427 653.1 339.605 659.487 339.605Z" fill="#C78437"/>
<path d="M581.717 112.678H453.369C452.141 112.678 450.963 113.166 450.095 114.034C449.226 114.903 448.738 116.081 448.738 117.309C448.738 118.537 449.226 119.715 450.095 120.584C450.963 121.452 452.141 121.94 453.369 121.94H581.717C582.945 121.94 584.123 121.452 584.992 120.584C585.86 119.715 586.348 118.537 586.348 117.309C586.348 116.081 585.86 114.903 584.992 114.034C584.123 113.166 582.945 112.678 581.717 112.678Z" fill="#E6E6E6"/>
<path d="M659.487 129.22C665.874 129.22 671.052 124.042 671.052 117.655C671.052 111.268 665.874 106.09 659.487 106.09C653.1 106.09 647.922 111.268 647.922 117.655C647.922 124.042 653.1 129.22 659.487 129.22Z" fill="#C78437"/>
<path d="M657.911 123.674C657.712 123.674 657.515 123.628 657.336 123.538C657.157 123.449 657.002 123.319 656.882 123.16L653.727 118.953C653.625 118.818 653.551 118.664 653.509 118.5C653.467 118.336 653.458 118.166 653.482 117.998C653.505 117.831 653.562 117.67 653.648 117.524C653.734 117.379 653.848 117.252 653.983 117.15C654.119 117.049 654.273 116.975 654.436 116.933C654.6 116.891 654.771 116.882 654.938 116.906C655.105 116.93 655.266 116.987 655.412 117.073C655.557 117.159 655.684 117.274 655.785 117.409L657.85 120.161L663.151 112.209C663.245 112.068 663.365 111.947 663.506 111.853C663.646 111.759 663.804 111.694 663.969 111.661C664.135 111.628 664.306 111.627 664.471 111.66C664.637 111.693 664.795 111.758 664.935 111.852C665.076 111.946 665.197 112.066 665.291 112.206C665.385 112.347 665.45 112.504 665.483 112.67C665.516 112.836 665.517 113.006 665.484 113.172C665.451 113.338 665.386 113.495 665.292 113.636L658.982 123.101C658.868 123.273 658.714 123.414 658.534 123.514C658.354 123.613 658.153 123.668 657.947 123.674L657.911 123.674Z" fill="white"/>
<path d="M621.116 129.22C627.503 129.22 632.681 124.042 632.681 117.655C632.681 111.268 627.503 106.09 621.116 106.09C614.729 106.09 609.551 111.268 609.551 117.655C609.551 124.042 614.729 129.22 621.116 129.22Z" fill="#F2F2F2"/>
<path d="M621.116 199.349C627.503 199.349 632.681 194.171 632.681 187.783C632.681 181.396 627.503 176.218 621.116 176.218C614.729 176.218 609.551 181.396 609.551 187.783C609.551 194.171 614.729 199.349 621.116 199.349Z" fill="#F2F2F2"/>
<path d="M621.116 269.477C627.503 269.477 632.681 264.299 632.681 257.911C632.681 251.524 627.503 246.346 621.116 246.346C614.729 246.346 609.551 251.524 609.551 257.911C609.551 264.299 614.729 269.477 621.116 269.477Z" fill="#F2F2F2"/>
<path d="M621.116 339.605C627.503 339.605 632.681 334.427 632.681 328.04C632.681 321.652 627.503 316.474 621.116 316.474C614.729 316.474 609.551 321.652 609.551 328.04C609.551 334.427 614.729 339.605 621.116 339.605Z" fill="#F2F2F2"/>
<path d="M657.91 334.059C657.711 334.059 657.514 334.012 657.335 333.923C657.156 333.833 657.001 333.704 656.881 333.544L653.726 329.337C653.625 329.202 653.551 329.048 653.509 328.884C653.467 328.721 653.458 328.55 653.482 328.383C653.506 328.216 653.562 328.055 653.648 327.91C653.734 327.764 653.848 327.637 653.983 327.536C654.119 327.435 654.272 327.361 654.436 327.319C654.6 327.277 654.77 327.268 654.937 327.292C655.104 327.315 655.265 327.372 655.411 327.458C655.556 327.544 655.683 327.658 655.784 327.793L657.849 330.545L663.15 322.593C663.34 322.309 663.634 322.112 663.968 322.045C664.303 321.978 664.651 322.047 664.934 322.236C665.218 322.425 665.415 322.72 665.482 323.054C665.549 323.389 665.481 323.736 665.291 324.02L658.981 333.486C658.867 333.657 658.713 333.798 658.533 333.898C658.353 333.997 658.152 334.052 657.946 334.058L657.91 334.059Z" fill="white"/>
<path d="M641.236 553.957C641.239 554.023 641.228 554.089 641.202 554.15C641.176 554.211 641.136 554.264 641.086 554.307C641.006 554.366 640.914 554.404 640.816 554.417C640.716 554.438 640.613 554.419 640.527 554.365C640.441 554.311 640.38 554.226 640.356 554.127C638.976 549.487 635.596 545.927 632.396 542.437C629.516 539.307 626.686 536.007 625.236 531.937C624.607 530.32 624.329 528.589 624.419 526.856C624.508 525.124 624.964 523.431 625.756 521.887C626.254 520.964 626.833 520.088 627.486 519.267C628.916 517.447 630.616 515.827 632.146 514.107C632.306 513.927 632.466 513.737 632.616 513.557C632.826 513.327 633.016 513.087 633.196 512.847C635.103 510.488 636.429 507.713 637.066 504.747C637.749 501.13 637.853 497.427 637.376 493.777C637.176 491.837 636.899 489.911 636.546 487.997C636.526 487.907 636.516 487.827 636.496 487.747C634.952 479.541 632.145 471.623 628.176 464.277C628.026 464.007 627.886 463.737 627.736 463.477C627.096 462.317 626.436 461.177 625.736 460.057C625.976 459.887 626.236 459.727 626.496 459.577C628.789 463.29 630.785 467.179 632.466 471.207C634.638 476.375 636.27 481.753 637.336 487.257C637.406 487.557 637.456 487.867 637.506 488.167C637.926 490.477 638.236 492.817 638.426 495.147C638.801 498.803 638.551 502.496 637.686 506.067C636.901 508.901 635.513 511.531 633.616 513.777C633.276 514.207 632.916 514.627 632.536 515.037C631.016 516.697 629.336 518.307 627.966 520.117C627.266 521.027 626.672 522.013 626.196 523.057C624.586 526.657 625.346 530.597 627.126 533.977C630.346 540.127 636.486 544.317 639.756 550.347C640.36 551.458 640.849 552.627 641.216 553.837C641.227 553.876 641.234 553.916 641.236 553.957Z" fill="white"/>
<path d="M637.091 488.273C639.899 487.567 642.365 485.887 644.048 483.532C645.731 481.176 646.522 478.299 646.28 475.414C646.229 474.831 645.32 474.883 645.371 475.467C645.601 478.153 644.864 480.833 643.292 483.023C641.72 485.213 639.417 486.769 636.799 487.41C636.23 487.55 636.526 488.412 637.091 488.273Z" fill="white"/>
<path d="M633.441 512.996C628.336 510.002 624.547 505.194 622.83 499.531C622.66 498.97 621.798 499.263 621.967 499.824C623.766 505.714 627.719 510.709 633.038 513.812C633.546 514.108 633.946 513.29 633.441 512.996Z" fill="white"/>
<path d="M628.283 464.227C628.243 464.247 628.213 464.257 628.173 464.277C626.372 465.099 624.324 465.196 622.453 464.547C622.535 464.253 622.639 463.966 622.763 463.687C624.387 464.244 626.162 464.169 627.733 463.477C627.823 463.447 627.903 463.407 627.993 463.367C628.107 463.328 628.232 463.335 628.341 463.388C628.449 463.44 628.533 463.533 628.573 463.647C628.606 463.763 628.594 463.886 628.541 463.993C628.487 464.101 628.395 464.184 628.283 464.227Z" fill="white"/>
<path d="M578.439 310.993C579.314 309.941 579.947 308.709 580.294 307.385C580.64 306.061 580.693 304.677 580.447 303.33C580.201 301.984 579.663 300.708 578.871 299.592C578.078 298.476 577.051 297.547 575.861 296.871L581.899 264.153L565.978 270.894L562.685 300.93C561.682 303.004 561.474 305.375 562.102 307.592C562.73 309.809 564.15 311.719 566.092 312.959C568.034 314.2 570.363 314.685 572.639 314.323C574.915 313.96 576.979 312.776 578.439 310.993Z" fill="#FFB6B6"/>
<path d="M588.153 214.157L583.093 197.147L547.413 141.477C545.429 139.159 543.057 137.204 540.403 135.697C535.13 132.683 528.982 131.567 522.986 132.536C516.989 133.505 511.506 136.5 507.45 141.021C503.394 145.543 501.01 151.318 500.696 157.384C500.382 163.45 502.156 169.441 505.723 174.357C506.458 175.385 507.27 176.354 508.153 177.257L554.363 224.917L556.993 227.637L561.153 238.157L562.793 286.127L564.263 286.477L577.213 289.527L579.023 289.957L582.053 274.287L583.953 266.797C585.569 260.41 586.386 253.846 586.383 247.257C586.383 245.227 586.313 243.187 586.153 241.157L588.153 214.157Z" fill="#DADADA"/>
<path d="M539.104 544.946H526.714L520.82 497.156L539.106 497.157L539.104 544.946Z" fill="#FFB6B6"/>
<path d="M538.776 540.897L525.556 535.527L525.166 535.367L517.866 540.897C513.86 540.897 510.009 542.443 507.115 545.214C504.222 547.984 502.51 551.765 502.336 555.767C502.316 555.987 502.316 556.217 502.316 556.447V556.957H542.266V540.897H538.776Z" fill="#2F2E41"/>
<path d="M515.512 520.231L504.833 526.514L475.516 488.316L491.276 479.043L515.512 520.231Z" fill="#FFB6B6"/>
<path d="M522.886 526.527L521.436 524.057L516.186 515.137L513.456 516.747L513.176 516.907L499.056 518.987L498.636 519.047L495.156 527.517C493.396 528.552 491.856 529.924 490.626 531.555C489.396 533.185 488.499 535.042 487.986 537.019C487.473 538.996 487.355 541.055 487.638 543.077C487.922 545.1 488.601 547.047 489.636 548.807L489.896 549.237L524.326 528.977L522.886 526.527Z" fill="#2F2E41"/>
<path d="M554.799 252.786C560.608 270.306 559.994 289.323 553.403 309.734L551.682 379.898L546.157 424.157C549.489 432.829 551.198 442.04 551.199 451.331C551.176 475.683 549.539 510.279 541.237 526.531H521.591L517.157 454.157L511.865 417.769L511.212 378.776L510.643 344.768L489.282 376.003L468.525 406.356L489.157 441.157L507.157 497.157L488.157 513.157L466.603 472.294L456.157 460.157L427.641 398.426L430.203 389.831C435.481 372.131 443.146 355.232 452.986 339.602L481.35 273.771L554.799 252.786Z" fill="#2F2E41"/>
<path d="M557.316 246.937L554.076 240.457L554.366 224.917L555.336 172.377C555.452 165.572 554.19 158.814 551.624 152.51C549.058 146.205 545.242 140.486 540.406 135.697C537.536 132.838 534.325 130.342 530.846 128.267L523.886 124.107L520.366 115.167L487.906 115.957L487.836 124.627L487.806 127.677L476.176 146.217L476.186 146.297L476.426 180.037L476.906 247.197L480.116 257.607L475.266 269.727L477.846 277.447L479.906 277.117L549.286 266.027C552.439 265.015 555.116 262.89 556.816 260.047C557.158 259.492 557.455 258.91 557.706 258.307C558.462 256.496 558.819 254.542 558.752 252.58C558.685 250.617 558.195 248.693 557.316 246.937Z" fill="#DADADA"/>
<path d="M501.16 104.047C517.45 104.047 530.656 90.8411 530.656 74.551C530.656 58.2609 517.45 45.0552 501.16 45.0552C484.87 45.0552 471.664 58.2609 471.664 74.551C471.664 90.8411 484.87 104.047 501.16 104.047Z" fill="#FFB6B6"/>
<path d="M519.506 98.9918C522.622 96.7998 525.776 92.6271 527.878 89.5034C530.663 85.397 532.554 80.7512 533.428 75.8671C534.303 70.9831 534.142 65.9698 532.955 61.1521C532.571 59.2245 531.668 57.4383 530.344 55.9859C529.668 55.2769 528.784 54.8003 527.82 54.6242C526.855 54.4481 525.86 54.5816 524.976 55.0057C525.422 53.7603 525.608 52.4368 525.522 51.1169C525.436 49.797 525.08 48.5087 524.477 47.3316C523.253 44.9814 521.498 42.9488 519.351 41.395C515.244 38.3221 510.382 36.4184 505.281 35.8859C500.18 35.3534 495.029 36.2119 490.376 38.3704C488.546 39.2495 491.481 32.6147 489.561 33.2771C487.656 34.0454 485.525 34.0374 483.626 33.2549C481.8 32.3671 475.863 37.8743 476.533 35.9571C475.165 36.6011 473.983 37.5806 473.095 38.8046C472.208 40.0286 471.645 41.4572 471.459 42.9573C471.273 44.4575 471.469 45.9804 472.03 47.3842C472.59 48.788 473.497 50.0271 474.666 50.9861C476.206 52.2499 478.116 52.9635 479.798 54.0313C482.746 56.0452 484.856 59.069 485.727 62.5316C486.599 65.9943 486.172 69.6562 484.528 72.8259C486.266 71.675 488.179 70.8123 490.192 70.2712C491.202 70.0098 492.259 69.9934 493.277 70.2234C494.295 70.4533 495.243 70.9229 496.042 71.5931C496.713 72.3395 497.224 73.2151 497.544 74.1663C497.864 75.1174 497.986 76.1238 497.903 77.1238C497.864 79.1262 497.415 81.1046 497.39 83.1071C497.314 88.9831 494.323 100.194 498.92 103.253C502.548 105.667 515.253 101.984 519.506 98.9918Z" fill="#2F2E41"/>
<path d="M337.3 146.295C337.998 147.472 338.945 148.482 340.076 149.254C341.206 150.025 342.492 150.54 343.843 150.761C345.194 150.981 346.577 150.903 347.894 150.532C349.211 150.161 350.431 149.505 351.468 148.611L380.254 165.293L379.256 148.033L352.073 134.838C350.456 133.196 348.293 132.204 345.994 132.05C343.694 131.897 341.419 132.592 339.598 134.004C337.777 135.417 336.537 137.448 336.113 139.713C335.69 141.978 336.112 144.32 337.3 146.295Z" fill="#FFB6B6"/>
<path d="M523.194 141.127C522.078 137.637 520.251 134.415 517.829 131.664C515.408 128.914 512.443 126.694 509.122 125.145C505.801 123.595 502.196 122.749 498.532 122.66C494.869 122.571 491.226 123.241 487.834 124.627C487.514 124.757 487.194 124.897 486.874 125.037L423.014 154.107L398.154 151.157L365.974 139.917L365.154 141.187L357.924 152.357L356.914 153.917L391.434 174.327L395.094 175.087C398.281 175.747 401.307 177.028 403.997 178.859C406.688 180.69 408.991 183.034 410.774 185.757L424.154 190.157L476.424 180.037L505.724 174.357L507.384 174.037C512.405 172.105 516.723 168.697 519.77 164.263C522.817 159.83 524.45 154.577 524.454 149.197C524.456 146.458 524.031 143.735 523.194 141.127Z" fill="#DADADA"/>
<path d="M671.792 558.147H323.804C323.488 558.147 323.185 558.022 322.962 557.798C322.739 557.575 322.613 557.272 322.613 556.956C322.613 556.641 322.739 556.338 322.962 556.114C323.185 555.891 323.488 555.766 323.804 555.766H671.792C672.108 555.766 672.411 555.891 672.634 556.114C672.857 556.338 672.983 556.641 672.983 556.956C672.983 557.272 672.857 557.575 672.634 557.798C672.411 558.022 672.108 558.147 671.792 558.147Z" fill="#CCCCCC"/>
<path d="M297.249 279.936H85.9016C84.6746 279.937 83.4984 280.426 82.6314 281.294C81.7643 282.163 81.2773 283.34 81.2773 284.567C81.2773 285.794 81.7643 286.971 82.6314 287.839C83.4984 288.707 84.6746 289.196 85.9016 289.198H297.249C297.858 289.199 298.461 289.08 299.024 288.847C299.586 288.615 300.098 288.274 300.528 287.844C300.959 287.414 301.301 286.903 301.534 286.34C301.767 285.778 301.887 285.175 301.887 284.567C301.887 283.958 301.767 283.355 301.534 282.793C301.301 282.231 300.959 281.72 300.528 281.29C300.098 280.859 299.586 280.518 299.024 280.286C298.461 280.054 297.858 279.935 297.249 279.936Z" fill="#E6E6E6"/>
<path d="M375.022 296.478C381.41 296.478 386.588 291.301 386.588 284.913C386.588 278.526 381.41 273.348 375.022 273.348C368.635 273.348 363.457 278.526 363.457 284.913C363.457 291.301 368.635 296.478 375.022 296.478Z" fill="#C78437"/>
<path d="M373.442 290.932C373.242 290.932 373.045 290.886 372.866 290.796C372.688 290.707 372.532 290.577 372.412 290.417L369.257 286.21C369.156 286.075 369.082 285.922 369.04 285.758C368.998 285.594 368.989 285.424 369.013 285.257C369.037 285.089 369.093 284.929 369.179 284.783C369.266 284.638 369.379 284.511 369.515 284.409C369.65 284.308 369.804 284.234 369.967 284.192C370.131 284.151 370.301 284.141 370.468 284.165C370.636 284.189 370.797 284.246 370.942 284.332C371.087 284.418 371.214 284.532 371.316 284.667L373.38 287.419L378.682 279.466C378.775 279.326 378.896 279.205 379.036 279.111C379.177 279.017 379.334 278.952 379.5 278.919C379.665 278.885 379.836 278.885 380.002 278.918C380.167 278.951 380.325 279.016 380.466 279.11C380.606 279.203 380.727 279.324 380.821 279.464C380.915 279.605 380.98 279.762 381.014 279.928C381.047 280.093 381.047 280.264 381.014 280.43C380.981 280.595 380.916 280.753 380.822 280.894L374.512 290.359C374.398 290.53 374.244 290.672 374.064 290.771C373.884 290.871 373.683 290.926 373.477 290.932L373.442 290.932Z" fill="white"/>
<path d="M336.647 296.478C343.035 296.478 348.213 291.301 348.213 284.913C348.213 278.526 343.035 273.348 336.647 273.348C330.26 273.348 325.082 278.526 325.082 284.913C325.082 291.301 330.26 296.478 336.647 296.478Z" fill="#F2F2F2"/>
<path d="M296.249 335.936H84.9016C83.6746 335.937 82.4984 336.426 81.6314 337.294C80.7643 338.163 80.2773 339.34 80.2773 340.567C80.2773 341.794 80.7643 342.971 81.6314 343.839C82.4984 344.707 83.6746 345.196 84.9016 345.198H296.249C297.478 345.198 298.656 344.71 299.524 343.841C300.393 342.973 300.88 341.795 300.88 340.567C300.88 339.338 300.393 338.16 299.524 337.292C298.656 336.423 297.478 335.936 296.249 335.936Z" fill="#E6E6E6"/>
<path d="M374.022 352.478C380.41 352.478 385.588 347.301 385.588 340.913C385.588 334.526 380.41 329.348 374.022 329.348C367.635 329.348 362.457 334.526 362.457 340.913C362.457 347.301 367.635 352.478 374.022 352.478Z" fill="#C78437"/>
<path d="M372.442 346.932C372.242 346.932 372.045 346.886 371.866 346.796C371.688 346.707 371.532 346.577 371.412 346.417L368.257 342.21C368.053 341.938 367.965 341.594 368.013 341.257C368.061 340.919 368.242 340.614 368.515 340.409C368.788 340.205 369.131 340.117 369.468 340.165C369.806 340.213 370.111 340.394 370.316 340.667L372.38 343.419L377.682 335.466C377.775 335.326 377.896 335.205 378.036 335.111C378.177 335.017 378.334 334.952 378.5 334.919C378.665 334.885 378.836 334.885 379.002 334.918C379.167 334.951 379.325 335.016 379.466 335.11C379.606 335.203 379.727 335.324 379.821 335.464C379.915 335.605 379.98 335.762 380.014 335.928C380.047 336.093 380.047 336.264 380.014 336.43C379.981 336.595 379.916 336.753 379.822 336.894L373.512 346.359C373.398 346.53 373.244 346.672 373.064 346.771C372.884 346.871 372.683 346.926 372.477 346.932L372.442 346.932Z" fill="white"/>
<path d="M335.647 352.478C342.035 352.478 347.213 347.301 347.213 340.913C347.213 334.526 342.035 329.348 335.647 329.348C329.26 329.348 324.082 334.526 324.082 340.913C324.082 347.301 329.26 352.478 335.647 352.478Z" fill="#F2F2F2"/>
</g>
<defs>
<clipPath id="clip0_551_4728">
<rect width="751.155" height="558.147" fill="white"/>
</clipPath>
</defs>
</svg>
