<svg id="Layer_1" data-name="Layer 1" xmlns="http://www.w3.org/2000/svg" xmlns:xlink="http://www.w3.org/1999/xlink" viewBox="0 0 16 16"><defs><style>.cls-1{fill:none;}.cls-2{clip-path:url(#clip-path);}.cls-3{fill:#c78437;}.cls-4{fill:#fff;}</style><clipPath id="clip-path"><rect class="cls-1" width="16" height="16" rx="2"/></clipPath></defs><g class="cls-2"><rect class="cls-3" width="16" height="16" rx="2"/><path class="cls-4" d="M5.15,14a.4.4,0,0,1-.13.31.58.58,0,0,1-.42.13.62.62,0,0,1-.42-.13A.43.43,0,0,1,4.06,14V8.23a1.17,1.17,0,0,0,0-.29,1.5,1.5,0,0,1,0-.2.32.32,0,0,1,.06-.18,1,1,0,0,1,.26-.21A2.91,2.91,0,0,1,4.94,7c.24-.1.48-.19.74-.27a7.08,7.08,0,0,1,.77-.17,4.85,4.85,0,0,1,.72-.07,2.53,2.53,0,0,1,1.55.42A1.29,1.29,0,0,1,9.27,8,2.38,2.38,0,0,1,9,9.12a3.8,3.8,0,0,1-.75,1,4.25,4.25,0,0,1-1.05.72A3,3,0,0,1,6,11.11l-.42,0A3,3,0,0,1,5.15,11Zm3-5.68a1,1,0,0,0-.35-.84,1.43,1.43,0,0,0-1-.3H6.55a2.74,2.74,0,0,0-.62.13,2.58,2.58,0,0,0-.76.38c0,.14,0,.31,0,.49v2.2a1.46,1.46,0,0,0,.35.12,2.17,2.17,0,0,0,.37,0,2.16,2.16,0,0,0,.88-.17A2.29,2.29,0,0,0,7.94,9.14,2.27,2.27,0,0,0,8.11,8.28Z"/><path d="M10.22,5.78l-.25,0H9.64a1.87,1.87,0,0,0-.83.19,2.07,2.07,0,0,0-.7.52,2.35,2.35,0,0,0-.69,1.72,1.25,1.25,0,0,0,.3.88,1,1,0,0,0,.72.31,2.74,2.74,0,0,0,.82-.13,4.23,4.23,0,0,0,.92-.44,4.41,4.41,0,0,0,0-.52c0-.18,0-.39,0-.61Zm1.17,2.44a1,1,0,0,0,0,.28,1.11,1.11,0,0,1,0,.17.31.31,0,0,1-.08.19,2.1,2.1,0,0,1-.31.26,3.7,3.7,0,0,1-.66.42,7,7,0,0,1-.74.34,3.86,3.86,0,0,1-.74.2,2.75,2.75,0,0,1-.67.09A2.38,2.38,0,0,1,6.7,9.74a1.55,1.55,0,0,1-.5-1.2,2.9,2.9,0,0,1,.3-1.28,3.94,3.94,0,0,1,.8-1.09A4.25,4.25,0,0,1,8.41,5.4a2.9,2.9,0,0,1,1.23-.28h.57V2.06a.45.45,0,0,1,.13-.34.59.59,0,0,1,.45-.14.59.59,0,0,1,.46.14.42.42,0,0,1,.14.34ZM13,10.05a.76.76,0,0,1-.47-.12.43.43,0,0,1-.15-.33V9.22a.37.37,0,0,1,.15-.31A.69.69,0,0,1,13,8.78a.64.64,0,0,1,.45.13.37.37,0,0,1,.15.31V9.6a.43.43,0,0,1-.15.33A.69.69,0,0,1,13,10.05Z"/><path class="cls-4" d="M6.56,7.15l.17-.28L7,6.53h.34l.38,0L8,6.6l-.19.31-.14.28-.05.09,0,0L7.2,7.2l-.38-.07Z"/><polygon class="cls-4" points="6.54 7.11 6.67 6.85 6.78 6.7 6.89 6.6 6.95 6.54 6.97 6.53 7.19 6.57 7.34 7.16 7.22 7.21 6.72 7.15 6.53 7.15 6.54 7.11"/></g></svg>